<svg xmlns="http://www.w3.org/2000/svg" width="254" height="254" viewBox="0 0 254 254">
  <g id="logo-temp" transform="translate(-139.001 -24)">
    <rect id="box" width="254" height="254" transform="translate(139.001 24)" fill="none"/>
    <g id="Group_1401" data-name="Group 1401" transform="translate(176.372 114.358)">
      <g id="folder" transform="translate(0 0.208)">
        <path id="Path_3218" data-name="Path 3218" d="M100.777,180.006v-7.7H99.236a7.629,7.629,0,0,0-7.7,7.7v3.236a10.7,10.7,0,0,1,7.7-3.236Z" transform="translate(-91.532 -150.731)" fill="#0074c8"/>
        <path id="Path_3219" data-name="Path 3219" d="M194.636,25.848,183.08,37.558h11.556Z" transform="translate(-169.982 -25.231)" fill="#0074c8"/>
        <path id="Path_3220" data-name="Path 3220" d="M194.024,46.8l2.311-4.16a16.926,16.926,0,0,1,14.945-8.782H227v-7.7a4.54,4.54,0,0,0-4.623-4.623H193.1V35.4a1.544,1.544,0,0,1-1.541,1.541H177.691V50.811H187.4a7.42,7.42,0,0,0,6.626-4.006Z" transform="translate(-165.364 -21.536)" fill="#fff"/>
        <path id="Path_3221" data-name="Path 3221" d="M157.789,129.229H137.45a13.881,13.881,0,0,0-12.172,7.242l-2.311,4.16a10.722,10.722,0,0,1-9.553,5.7H99.238a7.629,7.629,0,0,0-7.7,7.7V180.23a7.727,7.727,0,0,0,7.7,7.7h58.55a7.629,7.629,0,0,0,7.7-7.7v-43.3a7.629,7.629,0,0,0-7.7-7.7Z" transform="translate(-91.534 -113.821)" fill="#0074c8"/>
      </g>
      <path id="Path_3222" data-name="Path 3222" d="M9.91,13.414a1.466,1.466,0,0,1-1.12-.382,2.833,2.833,0,0,1-.56-.891L.9-11.422a1.361,1.361,0,0,1-.1-.509,1.04,1.04,0,0,1,.356-.789,1.163,1.163,0,0,1,.814-.331H7.213a1.469,1.469,0,0,1,1.043.356,1.617,1.617,0,0,1,.483.713L13.014,2.574l4.58-14.5a1.778,1.778,0,0,1,.483-.738,1.481,1.481,0,0,1,1.094-.382h3.359a1.572,1.572,0,0,1,1.12.382,1.322,1.322,0,0,1,.458.738l4.58,14.5,4.275-14.556a1.617,1.617,0,0,1,.483-.713,1.469,1.469,0,0,1,1.043-.356h5.242a1.163,1.163,0,0,1,.814.331,1.04,1.04,0,0,1,.356.789,1.361,1.361,0,0,1-.1.509L33.474,12.142a2.093,2.093,0,0,1-.534.891,1.555,1.555,0,0,1-1.145.382h-4.58a1.572,1.572,0,0,1-1.12-.382,1.989,1.989,0,0,1-.56-.891L20.852-1.8,16.17,12.142a1.989,1.989,0,0,1-.56.891,1.572,1.572,0,0,1-1.12.382Zm43.158.509q-6.005,0-9.568-3.257T39.785,1V-.785a14.763,14.763,0,0,1,1.807-6.9,10.952,10.952,0,0,1,4.58-4.377,14.8,14.8,0,0,1,6.845-1.5,14.038,14.038,0,0,1,7.405,1.781,11.323,11.323,0,0,1,4.4,4.835A15.828,15.828,0,0,1,66.3.029V1.251a1.22,1.22,0,0,1-1.272,1.272H48.742V2.88a8.032,8.032,0,0,0,.534,2.7A4.383,4.383,0,0,0,50.7,7.511a3.726,3.726,0,0,0,2.316.713,3.916,3.916,0,0,0,1.7-.331,4.489,4.489,0,0,0,1.145-.763,8.953,8.953,0,0,0,.713-.738,2.514,2.514,0,0,1,.738-.687,2.3,2.3,0,0,1,.891-.127h6.311a1.19,1.19,0,0,1,.84.305.92.92,0,0,1,.28.814,4.475,4.475,0,0,1-.865,2.087A10.509,10.509,0,0,1,62.407,11.2a12.867,12.867,0,0,1-3.893,1.959A17.587,17.587,0,0,1,53.068,13.923ZM48.742-2.515h8.6v-.1a7.667,7.667,0,0,0-.483-2.875A3.94,3.94,0,0,0,55.384-7.35a4.167,4.167,0,0,0-2.367-.662,3.956,3.956,0,0,0-2.29.662,4.156,4.156,0,0,0-1.476,1.858,7.325,7.325,0,0,0-.509,2.875ZM83.706,13.923a10.507,10.507,0,0,1-4.733-.967,9.59,9.59,0,0,1-3.155-2.443v1.629a1.3,1.3,0,0,1-1.272,1.272H68.794a1.2,1.2,0,0,1-.916-.382,1.264,1.264,0,0,1-.356-.891v-33.59a1.24,1.24,0,0,1,.356-.916,1.24,1.24,0,0,1,.916-.356H75a1.24,1.24,0,0,1,.916.356,1.24,1.24,0,0,1,.356.916v10.891a10.071,10.071,0,0,1,3.1-2.163,10.3,10.3,0,0,1,4.326-.84,11.346,11.346,0,0,1,4.5.84,9.262,9.262,0,0,1,3.334,2.392,11.029,11.029,0,0,1,2.138,3.766,16.977,16.977,0,0,1,.865,4.911Q94.6-.632,94.6.157t-.051,1.807a17.431,17.431,0,0,1-.865,5.064,10.8,10.8,0,0,1-2.163,3.766,9.02,9.02,0,0,1-3.334,2.341A11.793,11.793,0,0,1,83.706,13.923ZM80.958,7.1a4.472,4.472,0,0,0,2.7-.713,3.986,3.986,0,0,0,1.4-1.934,10.145,10.145,0,0,0,.534-2.7,24.478,24.478,0,0,0,0-3.155,10.146,10.146,0,0,0-.534-2.7,3.986,3.986,0,0,0-1.4-1.934,4.472,4.472,0,0,0-2.7-.713,4.545,4.545,0,0,0-2.6.687,4.306,4.306,0,0,0-1.527,1.781,6.135,6.135,0,0,0-.56,2.367q-.051.967-.051,1.883t.051,1.934a8.711,8.711,0,0,0,.56,2.545,4.2,4.2,0,0,0,1.476,1.909A4.4,4.4,0,0,0,80.958,7.1Z" transform="translate(85.032 22.72)" fill="#fff"/>
      <path id="Path_3223" data-name="Path 3223" d="M12.12,13.923a11.7,11.7,0,0,1-4.4-.789,8.975,8.975,0,0,1-3.359-2.341A10.8,10.8,0,0,1,2.2,7.027a17.43,17.43,0,0,1-.865-5.064Q1.28.946,1.28.157T1.331-1.65A16.977,16.977,0,0,1,2.2-6.561a11.028,11.028,0,0,1,2.138-3.766,9.213,9.213,0,0,1,3.359-2.392,11.257,11.257,0,0,1,4.428-.84,10.439,10.439,0,0,1,4.377.84,10.071,10.071,0,0,1,3.1,2.163V-21.448a1.24,1.24,0,0,1,.356-.916,1.24,1.24,0,0,1,.916-.356h6.209a1.264,1.264,0,0,1,.891.356,1.2,1.2,0,0,1,.382.916v33.59a1.3,1.3,0,0,1-1.272,1.272H21.332a1.2,1.2,0,0,1-.916-.382,1.264,1.264,0,0,1-.356-.891V10.514A9.59,9.59,0,0,1,16.9,12.956,10.634,10.634,0,0,1,12.12,13.923Zm2.8-6.82a4.379,4.379,0,0,0,2.672-.738,4.445,4.445,0,0,0,1.476-1.909A7.322,7.322,0,0,0,19.6,1.913q.051-1.018.051-1.934T19.6-1.9a6.135,6.135,0,0,0-.56-2.367,4.306,4.306,0,0,0-1.527-1.781,4.545,4.545,0,0,0-2.6-.687,4.494,4.494,0,0,0-2.672.713,3.927,3.927,0,0,0-1.425,1.934,10.145,10.145,0,0,0-.534,2.7,16.341,16.341,0,0,0,0,3.155,10.145,10.145,0,0,0,.534,2.7,3.927,3.927,0,0,0,1.425,1.934A4.494,4.494,0,0,0,14.92,7.1Zm28.4,6.82a16.883,16.883,0,0,1-7.2-1.374,10.084,10.084,0,0,1-4.479-3.944,13.132,13.132,0,0,1-1.756-6.133q-.051-1.018-.051-2.316t.051-2.265a12.536,12.536,0,0,1,1.832-6.158,10.626,10.626,0,0,1,4.555-3.919,16.479,16.479,0,0,1,7.049-1.374,16.613,16.613,0,0,1,7.1,1.374,10.626,10.626,0,0,1,4.555,3.919,12.536,12.536,0,0,1,1.832,6.158q.051.967.051,2.265t-.051,2.316a13.131,13.131,0,0,1-1.756,6.133,10.084,10.084,0,0,1-4.479,3.944A17.02,17.02,0,0,1,43.318,13.923Zm0-6.209A3.917,3.917,0,0,0,46.652,6.34a7.483,7.483,0,0,0,1.2-4.122Q47.9,1.454,47.9.182t-.051-2.036a7.528,7.528,0,0,0-1.2-4.1,3.884,3.884,0,0,0-3.334-1.4,3.91,3.91,0,0,0-3.283,1.4,7,7,0,0,0-1.2,4.1q-.051.763-.051,2.036t.051,2.036a6.965,6.965,0,0,0,1.2,4.122A3.943,3.943,0,0,0,43.318,7.714ZM70.5,13.923a15.4,15.4,0,0,1-6.667-1.374,10.987,10.987,0,0,1-4.606-4,12.239,12.239,0,0,1-1.858-6.285q-.051-.814-.051-2.061t.051-2.061A12.479,12.479,0,0,1,59.2-8.19a10.786,10.786,0,0,1,4.606-4A15.571,15.571,0,0,1,70.5-13.559a16.449,16.449,0,0,1,6.031.992A12.461,12.461,0,0,1,80.6-10.1,11.309,11.309,0,0,1,82.939-7.07a6.853,6.853,0,0,1,.84,2.723,1.032,1.032,0,0,1-.356.891,1.306,1.306,0,0,1-.916.382H76.043a1.316,1.316,0,0,1-.865-.254,2.344,2.344,0,0,1-.56-.763,4.728,4.728,0,0,0-1.552-2.239,4.111,4.111,0,0,0-2.417-.662,3.831,3.831,0,0,0-3.13,1.323,6.716,6.716,0,0,0-1.2,4.071q-.051,2.036,0,3.613a6.9,6.9,0,0,0,1.221,4.071,3.826,3.826,0,0,0,3.1,1.272,4.067,4.067,0,0,0,2.494-.687,4.7,4.7,0,0,0,1.476-2.214,2.344,2.344,0,0,1,.56-.763,1.316,1.316,0,0,1,.865-.254h6.464a1.355,1.355,0,0,1,.916.356,1.027,1.027,0,0,1,.356.916A6.82,6.82,0,0,1,83.27,6.7a10.309,10.309,0,0,1-1.425,2.443,10.85,10.85,0,0,1-2.519,2.341,13.907,13.907,0,0,1-3.741,1.756A17.026,17.026,0,0,1,70.5,13.923Z" transform="translate(84.551 60.497)" fill="#fff"/>
    </g>
  </g>
</svg>
