<svg xmlns="http://www.w3.org/2000/svg" width="24.001" height="17.623" viewBox="0 0 24.001 17.623">
  <path id="icon-processos" d="M29.773,18.513H24.314a1.691,1.691,0,0,0-1.538.988l-.278.608H12.583a1.743,1.743,0,0,0-1.728,1.509l-.141,1.04H8.465a1.347,1.347,0,0,0-1.334,1.528L8.815,36.136H28.852l2.254-16.1A1.346,1.346,0,0,0,29.773,18.513Zm-.453,4.664L28.157,31.2l-1.038-7.373a1.346,1.346,0,0,0-1.334-1.165H12.249a1.149,1.149,0,0,1,1.092-.8H28.182A1.149,1.149,0,0,1,29.319,23.177Z" transform="translate(-7.118 -18.513)" fill="#ebebeb"/>
</svg>
