<svg xmlns="http://www.w3.org/2000/svg" width="24" height="24" viewBox="0 0 24 24">
  <path id="icon-qrcode" d="M55-900.078V-906h5.894v2.679H57.651v3.243ZM55-882v-5.894h2.651v3.243h3.243V-882Zm18.078,0v-2.651h3.243v-3.243H79V-882Zm3.243-18.078v-3.243H73.078V-906H79v5.922Zm-2.9,12.55h1.777v1.777H73.416Zm0-3.553h1.777v1.777H73.416ZM71.639-889.3h1.777v1.777H71.639Zm-1.777,1.777h1.777v1.777H69.863ZM68.086-889.3h1.777v1.777H68.086Zm3.553-3.553h1.777v1.777H71.639Zm-1.777,1.777h1.777v1.777H69.863Zm-1.777-1.777h1.777v1.777H68.086Zm7.107-9.363v7.107H68.086v-7.107Zm-9.335,9.363v7.107H58.751v-7.107Zm0-9.363v7.107H58.751v-7.107Zm-1.72,14.75v-3.666H60.471v3.666Zm0-9.363V-900.5H60.471v3.666Zm9.335,0V-900.5H69.806v3.666Z" transform="translate(-55 906)"/>
</svg>
