<svg xmlns="http://www.w3.org/2000/svg" width="41.143" height="32" viewBox="0 0 41.143 32">
  <path id="icon-apagar" d="M133.714-728a4.157,4.157,0,0,1-2.286-.657,6.472,6.472,0,0,1-1.771-1.686L120-744l9.657-13.657a6.472,6.472,0,0,1,1.771-1.686,4.158,4.158,0,0,1,2.286-.657h24a3.3,3.3,0,0,1,2.421,1.007,3.3,3.3,0,0,1,1.007,2.421v25.143a3.3,3.3,0,0,1-1.007,2.422A3.3,3.3,0,0,1,157.714-728Zm24-3.429v0Zm-24.629,0h24.629v-25.143H133.086L124.286-744Zm5.657-3.771,6.4-6.4,6.4,6.4L154-737.657,147.543-744l6.343-6.343-2.457-2.457-6.286,6.4-6.4-6.4-2.457,2.457L142.743-744l-6.457,6.343Z" transform="translate(-120 760)"/>
</svg>
