<svg xmlns="http://www.w3.org/2000/svg" width="28.453" height="32" viewBox="0 0 28.453 32">
  <path id="icon-biometrico" d="M118.351-873.819a.545.545,0,0,1-.332-.429.846.846,0,0,1,.059-.547,16.187,16.187,0,0,1,6.129-5.427,17.439,17.439,0,0,1,8.042-1.913,17.7,17.7,0,0,1,7.886,1.815,16.128,16.128,0,0,1,6.129,5.212.86.86,0,0,1,.176.644.831.831,0,0,1-.293.488.751.751,0,0,1-.547.176.625.625,0,0,1-.508-.371,14.55,14.55,0,0,0-5.6-4.743,16.765,16.765,0,0,0-7.242-1.7,16.2,16.2,0,0,0-7.242,1.659,14.091,14.091,0,0,0-5.524,4.821,1,1,0,0,1-.586.41A.712.712,0,0,1,118.351-873.819Zm18.9,19.793a12.01,12.01,0,0,1-7.164-4.119,11.633,11.633,0,0,1-2.6-7.593,4.66,4.66,0,0,1,1.386-3.4,4.563,4.563,0,0,1,3.377-1.405,4.731,4.731,0,0,1,3.4,1.347,4.393,4.393,0,0,1,1.405,3.3,3.1,3.1,0,0,0,.956,2.3,3.2,3.2,0,0,0,2.323.937,3.085,3.085,0,0,0,2.264-.937,3.131,3.131,0,0,0,.937-2.3,10.084,10.084,0,0,0-3.318-7.671,11.3,11.3,0,0,0-8-3.1,11.014,11.014,0,0,0-7.964,3.182,10.434,10.434,0,0,0-3.279,7.789,18.845,18.845,0,0,0,.215,2.85,13.222,13.222,0,0,0,.722,2.733.942.942,0,0,1,.02.625.658.658,0,0,1-.371.351,1.03,1.03,0,0,1-.625.039.712.712,0,0,1-.468-.508,19.084,19.084,0,0,1-.683-2.713,18.772,18.772,0,0,1-.293-3.416,12.022,12.022,0,0,1,3.767-8.843,12.346,12.346,0,0,1,9-3.728,12.579,12.579,0,0,1,9.057,3.611,11.762,11.762,0,0,1,3.748,8.8,4.648,4.648,0,0,1-1.366,3.357,4.5,4.5,0,0,1-3.357,1.406,4.779,4.779,0,0,1-3.436-1.347,4.349,4.349,0,0,1-1.405-3.26,3.262,3.262,0,0,0-.937-2.342,3.068,3.068,0,0,0-2.3-.976,3.087,3.087,0,0,0-2.284.976,3.227,3.227,0,0,0-.956,2.342,10.175,10.175,0,0,0,2.264,6.715,11.038,11.038,0,0,0,6.4,3.631.534.534,0,0,1,.468.293.922.922,0,0,1,.078.527.791.791,0,0,1-.293.469A.914.914,0,0,1,137.247-854.026Zm-14.133-28.226a.892.892,0,0,1-.644.117.748.748,0,0,1-.41-.312.764.764,0,0,1-.078-.527.542.542,0,0,1,.312-.488,17.407,17.407,0,0,1,4.821-1.932A22.222,22.222,0,0,1,132.25-886a21.242,21.242,0,0,1,5.056.605,20.169,20.169,0,0,1,4.743,1.815.638.638,0,0,1,.41.468.846.846,0,0,1-.059.547,1.089,1.089,0,0,1-.429.371.57.57,0,0,1-.586-.059,21.788,21.788,0,0,0-4.431-1.64,19.176,19.176,0,0,0-4.7-.586,20.39,20.39,0,0,0-4.724.547A18.14,18.14,0,0,0,123.114-882.252Zm4.919,27.563a15.859,15.859,0,0,1-3.4-5.017,15.519,15.519,0,0,1-1.132-6.032,8.351,8.351,0,0,1,2.538-6.129,8.443,8.443,0,0,1,6.207-2.538,8.7,8.7,0,0,1,6.227,2.479,8.026,8.026,0,0,1,2.6,6.032,1.107,1.107,0,0,1-.176.644.639.639,0,0,1-.566.254.738.738,0,0,1-.625-.254,1.026,1.026,0,0,1-.2-.644,6.635,6.635,0,0,0-2.128-5,7.169,7.169,0,0,0-5.134-2.03,6.964,6.964,0,0,0-5.114,2.108,6.918,6.918,0,0,0-2.108,5.075,13.987,13.987,0,0,0,.976,5.446,15.312,15.312,0,0,0,3.2,4.626.787.787,0,0,1,.273.547.727.727,0,0,1-.156.469.693.693,0,0,1-.605.273A.871.871,0,0,1,128.033-854.69Zm12.571-2.655a9.748,9.748,0,0,1-6.442-2.206,7.735,7.735,0,0,1-2.655-6.3.884.884,0,0,1,.2-.586.672.672,0,0,1,.547-.234.672.672,0,0,1,.547.234.884.884,0,0,1,.2.586,6.3,6.3,0,0,0,2.245,5.231,8.327,8.327,0,0,0,5.368,1.8,5.977,5.977,0,0,0,.9-.078,6.2,6.2,0,0,1,.937-.078.755.755,0,0,1,.527.2.461.461,0,0,1,.176.429.778.778,0,0,1-.137.488.761.761,0,0,1-.371.254,4.14,4.14,0,0,1-1.113.234Q140.956-857.344,140.6-857.344Z" transform="translate(-118 886)" fill="#0074c8"/>
</svg>
