<?xml version="1.0" encoding="utf-8"?>
<!-- Generator: Adobe Illustrator 28.0.0, SVG Export Plug-In . SVG Version: 6.00 Build 0)  -->
<svg version="1.1" xmlns="http://www.w3.org/2000/svg" xmlns:xlink="http://www.w3.org/1999/xlink" x="0px" y="0px"
	 viewBox="0 0 456 456" style="enable-background:new 0 0 456 456;" xml:space="preserve">
<style type="text/css">
	.st0{display:none;}
	.st1{display:inline;fill:#FFFFFF;}
	.st2{fill:#0074C8;}
	.st3{fill:#959595;}
	.st4{fill:#F6FCFF;}
</style>
<g id="Layer_1" xmlns:serif="http://www.serif.com/" class="st0">
	<path class="st1" d="M105.5,281.6c-2.7,0-5-0.9-6.9-2.7c-1.9-1.8-2.8-4-2.8-6.6c0-2.6,0.9-4.8,2.8-6.7c1.9-1.8,4.2-2.8,6.9-2.8
		c2.7,0,5.1,0.9,7,2.8c1.9,1.8,2.9,4.1,2.9,6.7c0,2.5-1,4.7-2.9,6.6C110.6,280.7,108.2,281.6,105.5,281.6z"/>
	<path class="st1" d="M213.6,280.1H196l-46.3-73c-1.2-1.8-2.1-3.8-2.9-5.8h-0.4c0.4,2.1,0.5,6.7,0.5,13.6v65.1h-15.5v-99.4h18.7
		l44.7,71.3c1.9,3,3.1,5,3.6,6.1h0.3c-0.5-2.6-0.7-7.1-0.7-13.4v-64h15.5L213.6,280.1z"/>
	<path class="st1" d="M289.3,280.1h-54.4v-99.4h52.2v14h-36.2v28.1h33.3v13.9h-33.3v29.4h38.3V280.1z"/>
	<path class="st1" d="M366.6,194.7h-27.8v85.4h-16.1v-85.4h-27.8v-14h71.7V194.7z"/>
</g>
<g id="Layer_2">
	<g>
		<path id="Path_3218" class="st2" d="M164.2,210.1v-17.7h-3.5c-9.7-0.1-17.6,7.7-17.6,17.3c0,0.1,0,0.2,0,0.3v7.4
			c4.6-4.8,11-7.4,17.6-7.4L164.2,210.1z"/>
		<path id="Path_3219" class="st3" d="M199.6,144.4l-26.5,26.8h26.5V144.4z"/>
		<path id="Path_3220" class="st4" d="M208.8,200.9l5.3-9.5c6.9-12.5,20.1-20.2,34.4-20.1h36.2v-17.6c0.1-5.8-4.5-10.5-10.3-10.6
			c-0.1,0-0.3,0-0.4,0h-67.4v31.8c0,2-1.6,3.5-3.5,3.5h-31.9v31.8h22.4C200,210.1,205.9,206.6,208.8,200.9L208.8,200.9z"/>
		<path id="Path_3221" class="st2" d="M295.3,178.3h-46.8c-11.7,0-22.4,6.4-28,16.6l-5.3,9.5c-4.3,8.1-12.8,13.2-22,13.1h-32.6
			c-9.7-0.1-17.6,7.7-17.7,17.3c0,0.1,0,0.2,0,0.3v60.1c0,9.8,7.9,17.7,17.7,17.7h134.6c9.7,0.1,17.6-7.7,17.7-17.3
			c0-0.1,0-0.2,0-0.3V196c0.1-9.7-7.7-17.6-17.4-17.7C295.5,178.3,295.4,178.3,295.3,178.3L295.3,178.3z"/>
	</g>
</g>
</svg>
