<?xml version="1.0" encoding="utf-8"?>
<!-- Generator: Adobe Illustrator 28.0.0, SVG Export Plug-In . SVG Version: 6.00 Build 0)  -->
<svg version="1.1" id="Layer_1" xmlns="http://www.w3.org/2000/svg" xmlns:xlink="http://www.w3.org/1999/xlink" x="0px" y="0px"
	 viewBox="0 0 170.4 75" style="enable-background:new 0 0 170.4 75;" xml:space="preserve">
<style type="text/css">
	.st0{fill:#0074C8;}
	.st1{fill:#959595;}
	.st2{fill:#F6FCFF;}
</style>
<g id="logo-v1" transform="translate(-176.001 -145.001)">
	<g id="icon" transform="translate(176.001 145.001)">
		<path id="Path_3218" class="st0" d="M9.3,29.6v-7.8H7.8c-4.3,0-7.7,3.4-7.8,7.6c0,0.1,0,0.1,0,0.2v3.3c2-2.1,4.9-3.3,7.8-3.3
			L9.3,29.6z"/>
		<path id="Path_3219" class="st1" d="M25,0.6L13.3,12.5H25V0.6z"/>
		<path id="Path_3220" class="st2" d="M29,25.5l2.3-4.2c3.1-5.5,8.9-8.9,15.2-8.9h16V4.7c0-2.5-2-4.6-4.5-4.7c-0.1,0-0.1,0-0.2,0
			H28.1v14c0,0.9-0.7,1.6-1.6,1.6H12.5v14h9.9C25.1,29.6,27.7,28,29,25.5L29,25.5z"/>
		<path id="Path_3221" class="st0" d="M67.2,15.6H46.6c-5.1,0-9.9,2.8-12.3,7.3l-2.3,4.2c-1.9,3.6-5.6,5.8-9.7,5.8H7.8
			c-4.3,0-7.8,3.4-7.8,7.6c0,0.1,0,0.1,0,0.2v26.5C0,71.5,3.5,75,7.8,75h59.4c4.3,0,7.8-3.4,7.8-7.6c0-0.1,0-0.1,0-0.2V23.4
			c0-4.3-3.4-7.8-7.7-7.8C67.3,15.6,67.2,15.6,67.2,15.6L67.2,15.6z"/>
	</g>
	<path id="Path_3222" class="st2" d="M275.7,175.2c-0.3,0-0.7-0.1-0.9-0.3c-0.2-0.2-0.4-0.5-0.5-0.7l-6.1-19.7
		c-0.1-0.1-0.1-0.3-0.1-0.4c0-0.3,0.1-0.5,0.3-0.7c0.2-0.2,0.4-0.3,0.7-0.3h4.4c0.3,0,0.6,0.1,0.9,0.3c0.2,0.2,0.3,0.4,0.4,0.6
		l3.6,12.2l3.8-12.1c0.1-0.2,0.2-0.4,0.4-0.6c0.2-0.2,0.6-0.3,0.9-0.3h2.8c0.3,0,0.7,0.1,0.9,0.3c0.2,0.2,0.3,0.4,0.4,0.6l3.8,12.1
		l3.6-12.2c0.1-0.2,0.2-0.4,0.4-0.6c0.2-0.2,0.6-0.3,0.9-0.3h4.4c0.3,0,0.5,0.1,0.7,0.3c0.2,0.2,0.3,0.4,0.3,0.7
		c0,0.1,0,0.3-0.1,0.4l-6.1,19.7c-0.1,0.3-0.2,0.5-0.4,0.7c-0.3,0.2-0.6,0.3-1,0.3h-3.8c-0.3,0-0.7-0.1-0.9-0.3
		c-0.2-0.2-0.4-0.5-0.5-0.7l-3.9-11.7l-3.9,11.7c-0.1,0.3-0.2,0.5-0.5,0.7c-0.3,0.2-0.6,0.3-0.9,0.3L275.7,175.2z M311.7,175.6
		c-2.9,0.2-5.8-0.8-8-2.7c-2-1.8-3-4.5-3.1-8.1v-1.5c0-2,0.5-4,1.5-5.8c0.9-1.6,2.2-2.8,3.8-3.7c1.8-0.9,3.7-1.3,5.7-1.3
		c2.2-0.1,4.3,0.4,6.2,1.5c1.6,1,2.9,2.4,3.7,4c0.8,1.8,1.3,3.8,1.2,5.8v1c0,0.3-0.1,0.6-0.3,0.8c-0.2,0.2-0.5,0.3-0.8,0.3h-13.6
		v0.3c0,0.8,0.2,1.5,0.4,2.2c0.2,0.6,0.7,1.2,1.2,1.6c0.6,0.4,1.2,0.6,1.9,0.6c0.5,0,1-0.1,1.4-0.3c0.3-0.2,0.7-0.4,1-0.6
		c0.2-0.2,0.4-0.4,0.6-0.6c0.2-0.2,0.4-0.4,0.6-0.6c0.2-0.1,0.5-0.1,0.7-0.1h5.3c0.3,0,0.5,0.1,0.7,0.3c0.2,0.2,0.3,0.4,0.2,0.7
		c-0.1,0.6-0.3,1.2-0.7,1.7c-0.5,0.8-1.2,1.5-2,2c-1,0.7-2.1,1.3-3.3,1.6C314.8,175.4,313.3,175.7,311.7,175.6z M308.1,161.9h7.2
		v-0.1c0-0.8-0.1-1.6-0.4-2.4c-0.2-0.6-0.7-1.2-1.2-1.6c-0.6-0.4-1.3-0.6-2-0.6c-0.7,0-1.3,0.2-1.9,0.6c-0.6,0.4-1,0.9-1.2,1.6
		C308.2,160.2,308.1,161,308.1,161.9L308.1,161.9z M337.3,175.6c-1.4,0-2.7-0.2-4-0.8c-1-0.5-1.9-1.2-2.6-2v1.4
		c0,0.6-0.5,1.1-1.1,1.1h-4.8c-0.3,0-0.6-0.1-0.8-0.3c-0.2-0.2-0.3-0.5-0.3-0.7v-28.1c0-0.3,0.1-0.6,0.3-0.8
		c0.2-0.2,0.5-0.3,0.8-0.3h5.2c0.3,0,0.6,0.1,0.8,0.3c0.2,0.2,0.3,0.5,0.3,0.8v9.1c0.7-0.8,1.6-1.4,2.6-1.8c1.1-0.5,2.4-0.7,3.6-0.7
		c1.3,0,2.6,0.2,3.8,0.7c1.1,0.4,2,1.1,2.8,2c0.8,0.9,1.4,2,1.8,3.2c0.4,1.3,0.7,2.7,0.7,4.1c0,0.6,0,1.1,0,1.5c0,0.4,0,0.9,0,1.5
		c0,1.4-0.3,2.9-0.7,4.2c-0.4,1.2-1,2.2-1.8,3.1c-0.8,0.9-1.7,1.5-2.8,2C339.9,175.4,338.6,175.7,337.3,175.6z M335,169.9
		c0.8,0,1.6-0.2,2.3-0.6c0.5-0.4,1-1,1.2-1.6c0.3-0.7,0.4-1.5,0.4-2.3c0.1-0.9,0.1-1.8,0-2.6c0-0.8-0.2-1.5-0.4-2.3
		c-0.2-0.6-0.6-1.2-1.2-1.6c-0.7-0.4-1.5-0.6-2.3-0.6c-0.8,0-1.5,0.2-2.2,0.6c-0.6,0.4-1,0.9-1.3,1.5c-0.3,0.6-0.4,1.3-0.5,2
		c0,0.5,0,1.1,0,1.6s0,1,0,1.6c0,0.7,0.2,1.4,0.5,2.1c0.2,0.6,0.7,1.2,1.2,1.6C333.5,169.8,334.3,170,335,169.9z"/>
	<path id="Path_3223" class="st2" d="M278.3,220c-1.4,0-2.8-0.2-4.2-0.7c-1.2-0.5-2.3-1.2-3.2-2.2c-0.9-1-1.6-2.2-2.1-3.5
		c-0.5-1.5-0.8-3.1-0.8-4.7c0-0.6,0-1.2,0-1.7s0-1.1,0-1.7c0-1.6,0.3-3.1,0.8-4.6c0.4-1.3,1.1-2.5,2-3.5c0.9-1,2-1.7,3.2-2.2
		c1.3-0.5,2.8-0.8,4.2-0.8c1.4,0,2.8,0.2,4.2,0.8c1.1,0.5,2.1,1.2,3,2v-10.2c0-0.3,0.1-0.6,0.3-0.9c0.2-0.2,0.5-0.3,0.9-0.3h5.9
		c0.3,0,0.6,0.1,0.8,0.3c0.2,0.2,0.4,0.5,0.4,0.9v31.5c0,0.3-0.1,0.6-0.4,0.8c-0.2,0.2-0.5,0.4-0.8,0.4h-5.5c-0.3,0-0.6-0.1-0.9-0.4
		c-0.2-0.2-0.3-0.5-0.3-0.8v-1.5c-0.8,1-1.9,1.7-3,2.3C281.5,219.7,279.9,220,278.3,220z M281,213.6c0.9,0,1.8-0.2,2.5-0.7
		c0.6-0.5,1.1-1.1,1.4-1.8c0.3-0.8,0.5-1.6,0.5-2.4c0-0.6,0-1.2,0-1.8c0-0.6,0-1.2,0-1.8c0-0.8-0.2-1.5-0.5-2.2
		c-0.3-0.7-0.8-1.3-1.5-1.7c-0.7-0.5-1.6-0.7-2.5-0.6c-0.9,0-1.8,0.2-2.5,0.7c-0.6,0.4-1.1,1.1-1.4,1.8c-0.3,0.8-0.5,1.7-0.5,2.5
		c-0.1,1-0.1,2,0,3c0.1,0.9,0.2,1.7,0.5,2.5c0.3,0.7,0.7,1.4,1.4,1.8C279.2,213.4,280.1,213.7,281,213.6z M308,220
		c-2.3,0.1-4.7-0.4-6.8-1.3c-1.8-0.8-3.2-2.1-4.3-3.7c-1-1.7-1.6-3.7-1.7-5.7c0-0.6,0-1.4,0-2.2s0-1.5,0-2.1c0.1-2,0.7-4,1.7-5.8
		c1.1-1.6,2.6-2.9,4.3-3.7c2.1-0.9,4.4-1.3,6.7-1.3c2.3-0.1,4.6,0.4,6.7,1.3c1.8,0.8,3.3,2.1,4.3,3.7c1.1,1.7,1.7,3.7,1.7,5.8
		c0,0.6,0,1.3,0,2.1c0,0.8,0,1.5,0,2.2c-0.1,2-0.6,4-1.7,5.7c-1,1.6-2.5,2.9-4.3,3.7C312.7,219.6,310.4,220.1,308,220z M308,214.2
		c1.2,0.1,2.4-0.4,3.2-1.3c0.8-1.1,1.1-2.5,1.1-3.9c0-0.5,0-1.1,0-1.9c0-0.8,0-1.4,0-1.9c0-1.4-0.4-2.7-1.1-3.8
		c-0.8-0.9-2-1.4-3.2-1.3c-1.2-0.1-2.3,0.4-3.1,1.3c-0.8,1.1-1.2,2.5-1.1,3.8c0,0.5,0,1.1,0,1.9c0,0.8,0,1.4,0,1.9
		c0,1.4,0.4,2.7,1.1,3.9C305.7,213.8,306.8,214.3,308,214.2z M333.8,220c-2.2,0-4.3-0.4-6.3-1.3c-1.8-0.8-3.3-2.1-4.4-3.7
		c-1.1-1.8-1.7-3.8-1.8-5.9c0-0.5,0-1.2,0-1.9c0-0.8,0-1.4,0-1.9c0-2.1,0.6-4.1,1.7-5.9c1.1-1.6,2.6-2.9,4.4-3.7
		c2-0.9,4.2-1.3,6.4-1.3c2,0,3.9,0.3,5.7,0.9c1.4,0.5,2.7,1.3,3.9,2.3c0.9,0.8,1.7,1.8,2.2,2.8c0.4,0.8,0.7,1.7,0.8,2.5
		c0,0.3-0.1,0.6-0.3,0.8c-0.2,0.2-0.5,0.4-0.9,0.4h-6.1c-0.3,0-0.6-0.1-0.8-0.2c-0.2-0.2-0.4-0.4-0.5-0.7c-0.3-0.8-0.8-1.6-1.5-2.1
		c-0.7-0.4-1.5-0.7-2.3-0.6c-1.1-0.1-2.2,0.4-3,1.2c-0.8,1.1-1.2,2.5-1.1,3.8c0,1.3,0,2.4,0,3.4c0,1.4,0.4,2.7,1.2,3.8
		c0.8,0.8,1.8,1.3,2.9,1.2c0.8,0,1.7-0.2,2.4-0.6c0.7-0.5,1.1-1.3,1.4-2.1c0.1-0.3,0.3-0.5,0.5-0.7c0.2-0.2,0.5-0.3,0.8-0.2h6.1
		c0.3,0,0.6,0.1,0.9,0.3c0.3,0.2,0.4,0.5,0.3,0.9c-0.1,0.6-0.2,1.3-0.5,1.9c-0.3,0.8-0.8,1.6-1.4,2.3c-0.7,0.9-1.5,1.6-2.4,2.2
		c-1.1,0.7-2.3,1.3-3.6,1.6C337.1,219.8,335.5,220,333.8,220z"/>
</g>
</svg>
