<svg xmlns="http://www.w3.org/2000/svg" width="24" height="24" viewBox="0 0 24 24">
  <g id="icon-workflow" transform="translate(-8.987 -7)">
    <rect id="box" width="24" height="24" transform="translate(8.987 7)" fill="rgba(255,255,255,0)"/>
    <path id="icon" d="M25.987,22.571a3.421,3.421,0,0,1-6.734.857H8.852a5.143,5.143,0,0,1,0-10.286h1.833a3.412,3.412,0,0,1,6.614,0h1.833a3.429,3.429,0,0,0,0-6.857H8.732a3.428,3.428,0,1,1,0-1.714h10.4a5.143,5.143,0,0,1,0,10.286H17.3a3.412,3.412,0,0,1-6.614,0H8.852a3.429,3.429,0,0,0,0,6.857h10.4a3.421,3.421,0,0,1,6.734.857Z" transform="translate(7 5)" fill="#0074c8"/>
  </g>
</svg>
