<svg xmlns="http://www.w3.org/2000/svg" width="19.283" height="24" viewBox="0 0 19.283 24">
  <path id="icon-notificacoes" d="M135-885.6v-2.623h1.981v-7.786a8,8,0,0,1,1.479-4.7,6.424,6.424,0,0,1,4.019-2.669v-.446a2.113,2.113,0,0,1,.627-1.542,2.059,2.059,0,0,1,1.522-.635,2.059,2.059,0,0,1,1.522.635,2.113,2.113,0,0,1,.627,1.542v.446a6.354,6.354,0,0,1,4.033,2.651,8.007,8.007,0,0,1,1.493,4.716v7.786h1.981v2.623Zm9.642,3.6a2.372,2.372,0,0,1-1.743-.73,2.4,2.4,0,0,1-.726-1.754h4.94a2.384,2.384,0,0,1-.732,1.758A2.385,2.385,0,0,1,144.642-882Z" transform="translate(-135 906)" fill="#0074c8"/>
</svg>
