<svg xmlns="http://www.w3.org/2000/svg" width="16" height="16" viewBox="0 0 16 16">
  <g id="icon-localizacoes" transform="translate(-118 -1033)">
    <rect id="box" width="16" height="16" transform="translate(118 1033)" fill="rgba(255,255,255,0)"/>
    <g id="icon" transform="translate(118 1035)">
      <path id="Path_3256" data-name="Path 3256" d="M186.7,142.7l-.388.119.551,1.8.388-.119Zm0,0-.388.119.551,1.8.388-.119Zm0,0-.388.119.551,1.8.388-.119Zm0,0-.388.119.551,1.8.388-.119Zm0,0-.388.119.551,1.8.388-.119Zm0,0-.388.119.551,1.8.388-.119Zm0,0-.388.119.551,1.8.388-.119Zm0,0-.388.119.551,1.8.388-.119Zm3.612,6.62-3.422-11.178a.291.291,0,0,0-.278-.205.282.282,0,0,0-.085.013l-2.7.827a.289.289,0,0,0-.193.363l3.422,11.178a.291.291,0,0,0,.363.193l2.7-.827h0a.29.29,0,0,0,.193-.363Zm-5.585-8.506a.485.485,0,0,1-.141-.948l1.892-.579a.485.485,0,0,1,.284.926l-1.893.58h0A.482.482,0,0,1,184.731,140.811Zm1.814,4.893a.485.485,0,0,1-.463-.343l-.834-2.725a.485.485,0,0,1,.321-.605l1.314-.4h0a.484.484,0,0,1,.605.322l.834,2.725a.484.484,0,0,1-.321.605l-1.314.4A.482.482,0,0,1,186.545,145.7Zm2.788,2.894-1.893.579h0a.484.484,0,0,1-.283-.926l1.892-.58a.485.485,0,0,1,.284.927Zm-3.017-5.783.551,1.8.388-.119-.55-1.8Zm.388-.119-.388.119.551,1.8.388-.119Zm0,0-.388.119.551,1.8.388-.119Zm0,0-.388.119.551,1.8.388-.119Zm0,0-.388.119.551,1.8.388-.119Zm0,0-.388.119.551,1.8.388-.119Zm0,0-.388.119.551,1.8.388-.119Zm-6.511-.013v1.881h.406v-1.881Zm0,0v1.881h.406v-1.881Zm0,0v1.881h.406v-1.881Zm0,0v1.881h.406v-1.881Zm1.631-4.593H179a.291.291,0,0,0-.291.291v11.69a.291.291,0,0,0,.291.291h2.827a.291.291,0,0,0,.291-.291v-11.69a.291.291,0,0,0-.291-.291Zm-.439,11.007h-1.979a.485.485,0,1,1,0-.969h1.979a.485.485,0,1,1,0,.969Zm-2.161-4.048V142.2a.484.484,0,0,1,.485-.485h1.374a.484.484,0,0,1,.485.484v2.85a.484.484,0,0,1-.485.485h-1.374a.484.484,0,0,1-.485-.485Zm2.161-4.725h-1.979a.485.485,0,1,1,0-.969h1.979a.485.485,0,1,1,0,.969Zm-.786,2.359h-.406v1.881h.406Zm-.406,0v1.881h.406v-1.881Zm0,0v1.881h.406v-1.881Zm0,0v1.881h.406v-1.881Zm0,0v1.881h.406v-1.881Zm-4.377,0v1.881h.406v-1.881Zm0,0v1.881h.406v-1.881Zm1.631-4.593H174.62a.291.291,0,0,0-.291.291v11.69a.291.291,0,0,0,.291.291h2.827a.291.291,0,0,0,.291-.291v-11.69a.291.291,0,0,0-.291-.291Zm-.438,11.007h-1.979a.485.485,0,0,1,0-.969h1.979a.485.485,0,0,1,0,.969Zm-2.161-4.048V142.2a.484.484,0,0,1,.485-.485h1.375a.484.484,0,0,1,.485.485v2.85a.484.484,0,0,1-.485.485h-1.375a.485.485,0,0,1-.485-.485Zm2.161-4.725h-1.979a.485.485,0,0,1,0-.969h1.979a.485.485,0,0,1,0,.969Zm-.787,2.359h-.406v1.881h.406Z" transform="translate(-174.329 -137.934)" fill="#fff"/>
    </g>
  </g>
</svg>
