<svg xmlns="http://www.w3.org/2000/svg" width="16" height="16" viewBox="0 0 16 16">
  <g id="icon-mensagens" transform="translate(-195.348 -749.348)">
    <rect id="box" width="16" height="16" transform="translate(195.349 749.348)" fill="rgba(255,255,255,0)"/>
    <path id="icon" d="M107.875,70h-8a1.455,1.455,0,0,0-1.454,1.455v5.091A1.455,1.455,0,0,0,99.875,78h4.364l3.636,2.909V78a1.454,1.454,0,0,0,1.455-1.455V71.455A1.454,1.454,0,0,0,107.875,70M97.694,77.272V73.636H94.785a1.455,1.455,0,0,0-1.455,1.454v4.364a1.455,1.455,0,0,0,1.455,1.455h.727v2.909l4.364-2.909h2.182a1.455,1.455,0,0,0,1.455-1.455v-.727H99.148a1.454,1.454,0,0,1-1.455-1.455" transform="translate(102.018 680.349)" fill="#fff" fill-rule="evenodd"/>
  </g>
</svg>
