<svg xmlns="http://www.w3.org/2000/svg" width="12.19" height="16" viewBox="0 0 12.19 16">
  <path id="icon-cadeadofechado" d="M161.524,152A1.528,1.528,0,0,1,160,150.476v-7.619a1.528,1.528,0,0,1,1.524-1.524h.762V139.81a3.81,3.81,0,1,1,7.619,0v1.524h.762a1.528,1.528,0,0,1,1.524,1.524v7.619A1.528,1.528,0,0,1,170.667,152Zm0-1.524h9.143v-7.619h-9.143Zm4.571-2.286a1.528,1.528,0,1,0-1.076-.448A1.467,1.467,0,0,0,166.1,148.19Zm-2.286-6.857h4.571V139.81a2.286,2.286,0,1,0-4.571,0Zm-2.286,9.143v0Z" transform="translate(-160 -136)" fill="#fff"/>
</svg>
