<svg xmlns="http://www.w3.org/2000/svg" width="23.334" height="24" viewBox="0 0 23.334 24">
  <path id="icon-assinar" d="M134.667,240a1.333,1.333,0,1,1,0-2.667,6.072,6.072,0,0,0,2.783-.617q1.217-.617,1.217-1.383a1.172,1.172,0,0,0-.433-.867,4.282,4.282,0,0,0-1.2-.733L139,231.767a5.617,5.617,0,0,1,1.7,1.5,3.407,3.407,0,0,1,.633,2.067,3.811,3.811,0,0,1-2.1,3.433A8.859,8.859,0,0,1,134.667,240ZM122.1,229.8a5.15,5.15,0,0,1-1.533-1.317,2.926,2.926,0,0,1-.567-1.817,3.065,3.065,0,0,1,1.033-2.35,14.2,14.2,0,0,1,3.7-2.117,26.091,26.091,0,0,0,2.683-1.35A1.058,1.058,0,0,0,128,220a1.125,1.125,0,0,0-.65-.933,3.952,3.952,0,0,0-2.017-.4,4.243,4.243,0,0,0-1.4.2,2.75,2.75,0,0,0-1.033.667,1.5,1.5,0,0,1-.9.433,1.21,1.21,0,0,1-.967-.3,1.251,1.251,0,0,1-.5-.867,1.21,1.21,0,0,1,.3-.967,4.935,4.935,0,0,1,1.817-1.3,6.463,6.463,0,0,1,2.683-.533,6.354,6.354,0,0,1,3.867,1.083A3.441,3.441,0,0,1,130.667,220a3.328,3.328,0,0,1-.967,2.333,12.437,12.437,0,0,1-3.9,2.3,19.242,19.242,0,0,0-2.533,1.233q-.6.4-.6.8a.767.767,0,0,0,.383.583,4.772,4.772,0,0,0,1.05.55Zm19.033-3.933-5.667-5.667,1.4-1.4a2.615,2.615,0,0,1,1.917-.8,2.507,2.507,0,0,1,1.883.8l1.867,1.867a2.507,2.507,0,0,1,.8,1.883,2.615,2.615,0,0,1-.8,1.917ZM121.333,240v-5.667L133.6,222.067l5.667,5.667L127,240Z" transform="translate(-120 -216)" fill="#0074c8"/>
</svg>
