<svg xmlns="http://www.w3.org/2000/svg" width="16" height="16" viewBox="0 0 16 16">
  <g id="icon-calendario" transform="translate(0.15 -0.002)">
    <rect id="base" width="16" height="16" transform="translate(-0.15 0.003)" fill="#fff"/>
    <path id="icon-calendar" d="M102.241-896.374a.841.841,0,0,1-.617-.248.831.831,0,0,1-.25-.615.841.841,0,0,1,.248-.617.832.832,0,0,1,.615-.25.841.841,0,0,1,.617.248.831.831,0,0,1,.25.615.841.841,0,0,1-.248.617A.832.832,0,0,1,102.241-896.374Zm-3.008,0a.841.841,0,0,1-.617-.248.831.831,0,0,1-.25-.615.841.841,0,0,1,.248-.617.832.832,0,0,1,.615-.25.841.841,0,0,1,.617.248.831.831,0,0,1,.25.615.841.841,0,0,1-.248.617A.832.832,0,0,1,99.232-896.374Zm6.016,0a.855.855,0,0,1-.6-.248.811.811,0,0,1-.263-.615.82.82,0,0,1,.261-.617.856.856,0,0,1,.611-.25.834.834,0,0,1,.6.248.825.825,0,0,1,.254.615.841.841,0,0,1-.248.617A.832.832,0,0,1,105.249-896.374Zm-3.008,3.008a.82.82,0,0,1-.617-.261.855.855,0,0,1-.25-.611.834.834,0,0,1,.248-.6.825.825,0,0,1,.615-.254.842.842,0,0,1,.617.248.832.832,0,0,1,.25.615.855.855,0,0,1-.248.6A.811.811,0,0,1,102.241-893.365Zm-3.008,0a.82.82,0,0,1-.617-.261.855.855,0,0,1-.25-.611.834.834,0,0,1,.248-.6.825.825,0,0,1,.615-.254.842.842,0,0,1,.617.248.832.832,0,0,1,.25.615.855.855,0,0,1-.248.6A.811.811,0,0,1,99.232-893.365Zm6.016,0a.833.833,0,0,1-.6-.261.834.834,0,0,1-.263-.611.813.813,0,0,1,.261-.6.849.849,0,0,1,.611-.254.834.834,0,0,1,.6.248.825.825,0,0,1,.254.615.855.855,0,0,1-.248.6A.811.811,0,0,1,105.249-893.365ZM96.767-890a1.7,1.7,0,0,1-1.251-.517A1.7,1.7,0,0,1,95-891.767v-11.318a1.731,1.731,0,0,1,.517-1.264,1.694,1.694,0,0,1,1.251-.522H97.82V-906h1.542v1.128h5.753V-906h1.542v1.128h1.053a1.722,1.722,0,0,1,1.264.522,1.722,1.722,0,0,1,.522,1.264v11.318a1.7,1.7,0,0,1-.522,1.251,1.731,1.731,0,0,1-1.264.517Zm0-1.767H107.71v-7.915H96.767Z" transform="translate(-94.398 906.002)" fill="#0074c8"/>
  </g>
</svg>
