<svg xmlns="http://www.w3.org/2000/svg" width="19.465" height="24" viewBox="0 0 19.465 24">
  <path id="icon-seguranca" d="M143.085-891.422h3.268l-.732-4.169a2.748,2.748,0,0,0,.894-.8,1.881,1.881,0,0,0,.346-1.111,2.069,2.069,0,0,0-.619-1.522,2.067,2.067,0,0,0-1.521-.619,2.07,2.07,0,0,0-1.522.619,2.067,2.067,0,0,0-.62,1.522,1.881,1.881,0,0,0,.346,1.111,2.748,2.748,0,0,0,.894.8ZM144.717-883a12.052,12.052,0,0,1-6.986-4.862A13.915,13.915,0,0,1,135-896.174v-7.192L144.718-907l9.746,3.635v7.182a13.879,13.879,0,0,1-2.746,8.318A12.115,12.115,0,0,1,144.717-883Z" transform="translate(-135 907)" fill="#0074c8"/>
</svg>
