<svg xmlns="http://www.w3.org/2000/svg" width="24" height="24" viewBox="0 0 24 24">
  <g id="icon-verpass" transform="translate(-2575 21366)">
    <rect id="box" width="24" height="24" transform="translate(2575 -21366)" fill="rgba(255,255,255,0)"/>
    <path id="icon" d="M52-786.909a4.734,4.734,0,0,0,3.477-1.432,4.734,4.734,0,0,0,1.432-3.477,4.734,4.734,0,0,0-1.432-3.477A4.734,4.734,0,0,0,52-796.727a4.734,4.734,0,0,0-3.477,1.432,4.734,4.734,0,0,0-1.432,3.477,4.734,4.734,0,0,0,1.432,3.477A4.734,4.734,0,0,0,52-786.909Zm0-1.964a2.84,2.84,0,0,1-2.086-.859,2.84,2.84,0,0,1-.859-2.086,2.841,2.841,0,0,1,.859-2.086A2.841,2.841,0,0,1,52-794.764a2.841,2.841,0,0,1,2.086.859,2.841,2.841,0,0,1,.859,2.086,2.84,2.84,0,0,1-.859,2.086A2.84,2.84,0,0,1,52-788.873Zm0,5.236a12.63,12.63,0,0,1-7.255-2.223A12.635,12.635,0,0,1,40-791.818a12.635,12.635,0,0,1,4.745-5.959A12.63,12.63,0,0,1,52-800a12.63,12.63,0,0,1,7.255,2.223A12.635,12.635,0,0,1,64-791.818a12.635,12.635,0,0,1-4.745,5.959A12.63,12.63,0,0,1,52-783.636Z" transform="translate(2535 -20562)" fill="#1f2125"/>
  </g>
</svg>
