<svg xmlns="http://www.w3.org/2000/svg" width="16" height="16" viewBox="0 0 16 16">
  <g id="icon-camposdinamicos" transform="translate(9246 6339)">
    <rect id="box" width="16" height="16" transform="translate(-9246 -6339)" fill="rgba(255,255,255,0)"/>
    <g id="icon" transform="translate(-9246 -6336)">
      <path id="Path_3274" data-name="Path 3274" d="M112.973,100.794H99.021a1.008,1.008,0,0,0-1.025.979v8.7a1.009,1.009,0,0,0,1.024.982h13.953a1.006,1.006,0,0,0,1.024-.982v-8.7a1,1,0,0,0-1.022-.979Zm-.229,9.252a.178.178,0,0,1-.059.136.218.218,0,0,1-.145.057l-13.117-.057a.21.21,0,0,1-.145-.059.179.179,0,0,1-.059-.134v-7.825a.194.194,0,0,1,.059-.134.217.217,0,0,1,.145-.057l13.122.057h0a.217.217,0,0,1,.145.057.189.189,0,0,1,.059.136Z" transform="translate(-97.995 -100.794)" fill="#fff" fill-rule="evenodd"/>
      <path id="Path_3275" data-name="Path 3275" d="M182.939,184.386a1.125,1.125,0,0,0-.666-.209h-.666v.536h.666a.311.311,0,0,1,.334.266v3.734a.311.311,0,0,1-.334.268h-.666v.536h.666a1.137,1.137,0,0,0,.666-.207,1.154,1.154,0,0,0,.666.207h.668v-.536h-.666a.311.311,0,0,1-.334-.268v-3.736a.311.311,0,0,1,.334-.266h.666v-.536h-.666a1.144,1.144,0,0,0-.668.211Z" transform="translate(-178.939 -181.515)" fill="#fff" fill-rule="evenodd"/>
    </g>
  </g>
</svg>
