<svg xmlns="http://www.w3.org/2000/svg" width="24" height="24" viewBox="0 0 24 24">
  <path id="icon-opcoes" d="M55.841-882l-.582-3.779a4.061,4.061,0,0,1-.818-.381,5.7,5.7,0,0,1-.762-.522l-3.464,1.636L47-890.827l3.159-2.341a4.015,4.015,0,0,1-.042-.409q-.014-.24-.014-.409t.014-.409a4.013,4.013,0,0,1,.042-.409L47-897.173l3.215-5.725,3.52,1.607a5.428,5.428,0,0,1,.721-.479,4.149,4.149,0,0,1,.8-.367L55.841-906h6.319l.582,3.835a8.359,8.359,0,0,1,.818.381,4.346,4.346,0,0,1,.762.494l3.492-1.607L71-897.173l-3.187,2.313q.028.2.055.437a3.833,3.833,0,0,1,.028.437,3.481,3.481,0,0,1-.028.423q-.028.226-.055.423L71-890.827l-3.215,5.781-3.492-1.636a6.656,6.656,0,0,1-.734.522,3.308,3.308,0,0,1-.818.381L62.159-882Zm3.1-8.32a3.443,3.443,0,0,0,2.55-1.072,3.565,3.565,0,0,0,1.053-2.595,3.566,3.566,0,0,0-1.053-2.595,3.443,3.443,0,0,0-2.55-1.072,3.443,3.443,0,0,0-2.55,1.072,3.566,3.566,0,0,0-1.053,2.595,3.565,3.565,0,0,0,1.053,2.595A3.443,3.443,0,0,0,58.945-890.32Z" transform="translate(-47 906)" fill="#262930"/>
</svg>
