<svg xmlns="http://www.w3.org/2000/svg" width="21.25" height="24" viewBox="0 0 21.25 24">
  <path id="icon-documentos" d="M32.437,9.6H16.812A2.8,2.8,0,0,0,14,12.412V30.787A2.8,2.8,0,0,0,16.812,33.6H32.437a2.8,2.8,0,0,0,2.812-2.812V12.412A2.8,2.8,0,0,0,32.437,9.6ZM19.656,17.631h5.25a.937.937,0,1,1,0,1.875h-5.25a.937.937,0,0,1,0-1.875ZM29.781,27.662H19.469a.937.937,0,0,1,0-1.875H29.781a.937.937,0,0,1,0,1.875Zm0-4.156H19.469a.937.937,0,1,1,0-1.875H29.781a.937.937,0,0,1,0,1.875Z" transform="translate(-14 -9.6)" fill="#fff"/>
</svg>
