<svg xmlns="http://www.w3.org/2000/svg" width="24" height="24" viewBox="0 0 24 24">
  <path id="icon-ajuda" d="M92-856a11.685,11.685,0,0,1-4.68-.945,12.117,12.117,0,0,1-3.81-2.565,12.117,12.117,0,0,1-2.565-3.81A11.685,11.685,0,0,1,80-868a11.685,11.685,0,0,1,.945-4.68,12.118,12.118,0,0,1,2.565-3.81,12.118,12.118,0,0,1,3.81-2.565A11.685,11.685,0,0,1,92-880a11.685,11.685,0,0,1,4.68.945,12.118,12.118,0,0,1,3.81,2.565,12.118,12.118,0,0,1,2.565,3.81A11.685,11.685,0,0,1,104-868a11.685,11.685,0,0,1-.945,4.68,12.118,12.118,0,0,1-2.565,3.81,12.117,12.117,0,0,1-3.81,2.565A11.685,11.685,0,0,1,92-856Zm-3.48-3.06,1.44-3.3a5.613,5.613,0,0,1-2.175-1.4,6.806,6.806,0,0,1-1.425-2.2l-3.3,1.38a9,9,0,0,0,2.13,3.36A9.386,9.386,0,0,0,88.52-859.06Zm-2.16-10.98a6.806,6.806,0,0,1,1.425-2.2,5.613,5.613,0,0,1,2.175-1.4l-1.38-3.3a9.33,9.33,0,0,0-3.36,2.16,9.329,9.329,0,0,0-2.16,3.36ZM92-864.4a3.472,3.472,0,0,0,2.55-1.05A3.472,3.472,0,0,0,95.6-868a3.472,3.472,0,0,0-1.05-2.55A3.472,3.472,0,0,0,92-871.6a3.472,3.472,0,0,0-2.55,1.05A3.472,3.472,0,0,0,88.4-868a3.472,3.472,0,0,0,1.05,2.55A3.472,3.472,0,0,0,92-864.4Zm3.48,5.34a9.336,9.336,0,0,0,3.315-2.145,9.336,9.336,0,0,0,2.145-3.315l-3.3-1.44a5.7,5.7,0,0,1-1.38,2.175,6.716,6.716,0,0,1-2.16,1.425Zm2.16-11.04,3.3-1.38a9.336,9.336,0,0,0-2.145-3.315,9.336,9.336,0,0,0-3.315-2.145l-1.38,3.36a5.689,5.689,0,0,1,2.13,1.365A6.754,6.754,0,0,1,97.64-870.1Z" transform="translate(-80 880)" fill="#0074c8"/>
</svg>
