<svg xmlns="http://www.w3.org/2000/svg" width="21.926" height="24" viewBox="0 0 21.926 24">
  <path id="icon-digitalizar" d="M57-937.816V-943h5.184v2.151H59.151v3.032Zm19.775,0v-3.032H73.743V-943h5.184v5.184ZM57-919v-5.184h2.151v3.032h3.032V-919Zm16.743,0v-2.151h3.032v-3.032h2.151V-919Zm-10.886-3.421a2.334,2.334,0,0,1-1.7-.738,2.334,2.334,0,0,1-.738-1.7v-12.285a2.334,2.334,0,0,1,.738-1.7,2.334,2.334,0,0,1,1.7-.738H73.069a2.334,2.334,0,0,1,1.7.738,2.334,2.334,0,0,1,.738,1.7v12.285a2.334,2.334,0,0,1-.738,1.7,2.334,2.334,0,0,1-1.7.738Zm2.151-10.808h5.935v-1.788H65.009Zm0,3.11h5.935v-1.788H65.009Zm0,3.11h5.935V-928.8H65.009Z" transform="translate(-57 943)" fill="#0074c8"/>
</svg>
