<svg xmlns="http://www.w3.org/2000/svg" width="16" height="16" viewBox="0 0 16 16">
  <g id="icon-conhecimento" transform="translate(-7523 20298)">
    <rect id="box" width="16" height="16" transform="translate(7523 -20298)" fill="rgba(255,255,255,0)"/>
    <g id="icon" transform="translate(7525 -20298)">
      <path id="Path_3260" data-name="Path 3260" d="M171.634,391.2a2.767,2.767,0,0,0-.7-.53,2.9,2.9,0,0,0-.908-.137,3.2,3.2,0,0,1-1.223-.217l-1.108,3.444a.2.2,0,0,0,.25.253l1.6-.47a.2.2,0,0,1,.212.072l1.031,1.321h0a.2.2,0,0,0,.348-.062l1.035-3.221a6.057,6.057,0,0,1-.545-.455Z" transform="translate(-167.25 -379.04)" fill="#fff"/>
      <path id="Path_3261" data-name="Path 3261" d="M382.882,391.21a3.4,3.4,0,0,1-1.166.192,2.9,2.9,0,0,0-.908.13,2.763,2.763,0,0,0-.695.535,5.323,5.323,0,0,1-.6.5l.98,3.2a.2.2,0,0,0,.35.062l1.03-1.321a.2.2,0,0,1,.212-.072l1.6.466a.2.2,0,0,0,.248-.253Z" transform="translate(-372.77 -379.904)" fill="#fff"/>
      <path id="Path_3262" data-name="Path 3262" d="M164.055,16.073a3.261,3.261,0,0,1-.667-.91,3.441,3.441,0,0,1-.183-1.153,1.785,1.785,0,0,0-.252-1.1,1.8,1.8,0,0,0-1.1-.252,3.441,3.441,0,0,1-1.153-.183,3.262,3.262,0,0,1-.91-.666c-.343-.318-.666-.617-.988-.617s-.645.3-.988.615a3.261,3.261,0,0,1-.91.667,3.441,3.441,0,0,1-1.153.183,1.785,1.785,0,0,0-1.1.252,1.786,1.786,0,0,0-.252,1.1h0a3.442,3.442,0,0,1-.183,1.153,3.262,3.262,0,0,1-.666.91c-.317.343-.615.666-.615.988s.3.645.615.988h0a3.261,3.261,0,0,1,.666.91,3.442,3.442,0,0,1,.183,1.153,1.785,1.785,0,0,0,.252,1.1,1.8,1.8,0,0,0,1.1.253,3.441,3.441,0,0,1,1.153.183,3.261,3.261,0,0,1,.91.666c.343.317.666.615.988.615s.645-.3.988-.615a3.261,3.261,0,0,1,.91-.666,3.441,3.441,0,0,1,1.153-.183,1.785,1.785,0,0,0,1.1-.252,1.786,1.786,0,0,0,.252-1.1,3.44,3.44,0,0,1,.183-1.153,3.259,3.259,0,0,1,.666-.91c.317-.343.615-.666.615-.988s-.3-.645-.613-.988Zm-2.479.6-1.093,1.065h0a.272.272,0,0,0-.077.235l.258,1.5h0a.266.266,0,0,1-.387.28l-1.35-.708a.259.259,0,0,0-.247,0l-1.35.708a.267.267,0,0,1-.387-.28l.258-1.5h0a.272.272,0,0,0-.077-.235l-1.091-1.065a.266.266,0,0,1,.147-.455L157.69,16a.267.267,0,0,0,.2-.147l.666-1.366a.265.265,0,0,1,.477,0l.666,1.366h0a.27.27,0,0,0,.2.147l1.5.218h0a.268.268,0,0,1,.173.455Z" transform="translate(-152.942 -11.196)" fill="#fff"/>
    </g>
  </g>
</svg>
