<svg xmlns="http://www.w3.org/2000/svg" width="16" height="16" viewBox="0 0 16 16">
  <path id="icon-historico" d="M103.069-850a7.852,7.852,0,0,1-3.126-.633,8.1,8.1,0,0,1-2.566-1.722,8.293,8.293,0,0,1-1.733-2.553A7.673,7.673,0,0,1,95-858.031a7.529,7.529,0,0,1,.643-3.1,8.235,8.235,0,0,1,1.733-2.521,8.188,8.188,0,0,1,2.568-1.712,7.865,7.865,0,0,1,3.129-.633,7.412,7.412,0,0,1,3.185.706,8.8,8.8,0,0,1,2.667,1.93v-1.971H110.4v4.711h-4.752v-1.515h1.743a6.757,6.757,0,0,0-1.985-1.383,5.549,5.549,0,0,0-2.332-.506,6,6,0,0,0-4.316,1.719,5.622,5.622,0,0,0-1.785,4.213,5.965,5.965,0,0,0,1.772,4.351,5.851,5.851,0,0,0,4.329,1.8,5.676,5.676,0,0,0,4.221-1.771,6.005,6.005,0,0,0,1.756-4.288H111a7.78,7.78,0,0,1-2.3,5.676A7.6,7.6,0,0,1,103.069-850Zm2.411-4.482-3.2-3.154V-862.2h1.473v3.922l2.8,2.719Z" transform="translate(-95 866)" fill="#0074c8"/>
</svg>
