<svg xmlns="http://www.w3.org/2000/svg" width="24" height="24" viewBox="0 0 24 24">
  <path id="icon-accordion" d="M92-863.8l5.4-5.4-1.71-1.68L92-867.19l-3.69-3.69L86.6-869.2Zm0,7.8a11.685,11.685,0,0,1-4.68-.945,12.117,12.117,0,0,1-3.81-2.565,12.118,12.118,0,0,1-2.565-3.81A11.685,11.685,0,0,1,80-868a11.685,11.685,0,0,1,.945-4.68,12.118,12.118,0,0,1,2.565-3.81,12.117,12.117,0,0,1,3.81-2.565A11.685,11.685,0,0,1,92-880a11.685,11.685,0,0,1,4.68.945,12.117,12.117,0,0,1,3.81,2.565,12.118,12.118,0,0,1,2.565,3.81A11.685,11.685,0,0,1,104-868a11.685,11.685,0,0,1-.945,4.68,12.118,12.118,0,0,1-2.565,3.81,12.117,12.117,0,0,1-3.81,2.565A11.685,11.685,0,0,1,92-856Zm0-2.4a9.265,9.265,0,0,0,6.81-2.79A9.265,9.265,0,0,0,101.6-868a9.265,9.265,0,0,0-2.79-6.81A9.265,9.265,0,0,0,92-877.6a9.265,9.265,0,0,0-6.81,2.79A9.265,9.265,0,0,0,82.4-868a9.265,9.265,0,0,0,2.79,6.81A9.265,9.265,0,0,0,92-858.4ZM92-868Z" transform="translate(-80 880)" fill="#003962"/>
</svg>
