<svg xmlns="http://www.w3.org/2000/svg" width="28.998" height="28.998" viewBox="0 0 63.998 63.998">
  <path id="icon-sucesso" d="M107.519-833.281l22.559-22.559-4.48-4.48-18.079,18.079-9.12-9.12-4.48,4.48ZM112-816a31.159,31.159,0,0,1-12.48-2.52,32.314,32.314,0,0,1-10.16-6.84,32.314,32.314,0,0,1-6.84-10.16A31.159,31.159,0,0,1,80-848a31.159,31.159,0,0,1,2.52-12.48,32.314,32.314,0,0,1,6.84-10.16,32.314,32.314,0,0,1,10.16-6.84A31.159,31.159,0,0,1,112-880a31.159,31.159,0,0,1,12.48,2.52,32.314,32.314,0,0,1,10.16,6.84,32.314,32.314,0,0,1,6.84,10.16A31.159,31.159,0,0,1,144-848a31.159,31.159,0,0,1-2.52,12.48,32.314,32.314,0,0,1-6.84,10.16,32.314,32.314,0,0,1-10.16,6.84A31.159,31.159,0,0,1,112-816Z" transform="translate(-80 880)"
        fill="#ffffff"/>
</svg>
