<svg xmlns="http://www.w3.org/2000/svg" width="24" height="24" viewBox="0 0 24 24">
  <path id="icon-tema" d="M92-856a11.687,11.687,0,0,1-4.68-.945,12.12,12.12,0,0,1-3.81-2.565,12.118,12.118,0,0,1-2.565-3.81A11.685,11.685,0,0,1,80-868a11.685,11.685,0,0,1,.945-4.68,12.118,12.118,0,0,1,2.565-3.81,12.12,12.12,0,0,1,3.81-2.565A11.685,11.685,0,0,1,92-880a11.685,11.685,0,0,1,4.68.945,12.119,12.119,0,0,1,3.81,2.565,12.118,12.118,0,0,1,2.565,3.81A11.685,11.685,0,0,1,104-868a11.685,11.685,0,0,1-.945,4.68,12.118,12.118,0,0,1-2.565,3.81,12.119,12.119,0,0,1-3.81,2.565A11.687,11.687,0,0,1,92-856Zm1.2-2.49a9.387,9.387,0,0,0,5.985-3.135A9.214,9.214,0,0,0,101.6-868a9.214,9.214,0,0,0-2.415-6.375A9.387,9.387,0,0,0,93.2-877.51Z" transform="translate(-80 880)" fill="#0074c8"/>
</svg>
