<svg xmlns="http://www.w3.org/2000/svg" width="51.904" height="63.998" viewBox="0 0 51.904 63.998">
  <path id="icon-erroconta" d="M160.915-862.757a3.211,3.211,0,0,0,2.435-.993,3.433,3.433,0,0,0,.946-2.462,3.318,3.318,0,0,0-.946-2.408,3.248,3.248,0,0,0-2.435-.972,3.23,3.23,0,0,0-2.435.982,3.374,3.374,0,0,0-.945,2.435,3.377,3.377,0,0,0,.945,2.435A3.229,3.229,0,0,0,160.915-862.757Zm-2.7-10.516h5.408V-890.1H158.21ZM160.91-843a32.107,32.107,0,0,1-18.62-12.951A37.1,37.1,0,0,1,135-878.131v-19.213L160.915-907l25.99,9.658v19.186a37,37,0,0,1-7.332,22.2A32.275,32.275,0,0,1,160.91-843Z" transform="translate(-135 907)" fill="#FFFFFF"/>
</svg>
