<svg xmlns="http://www.w3.org/2000/svg" width="24" height="23.969" viewBox="0 0 24 23.969">
  <path id="icon-pesquisar" d="M118.869-834.031l-8.428-8.4A6.926,6.926,0,0,1,108.3-841.3a8.495,8.495,0,0,1-2.68.409A8.311,8.311,0,0,1,99.5-843.4a8.245,8.245,0,0,1-2.5-6.047,8.241,8.241,0,0,1,2.507-6.047A8.259,8.259,0,0,1,105.569-858a8.207,8.207,0,0,1,6.047,2.507,8.272,8.272,0,0,1,2.491,6.052,8.412,8.412,0,0,1-.392,2.612,7.976,7.976,0,0,1-1.175,2.272l8.46,8.4ZM105.6-843.838a5.332,5.332,0,0,0,3.956-1.637,5.454,5.454,0,0,0,1.61-3.971,5.446,5.446,0,0,0-1.614-3.971,5.336,5.336,0,0,0-3.952-1.637,5.464,5.464,0,0,0-4.007,1.637,5.4,5.4,0,0,0-1.644,3.971,5.4,5.4,0,0,0,1.639,3.971A5.459,5.459,0,0,0,105.6-843.838Z" transform="translate(-97 858)" fill="#fff"/>
</svg>
