<svg xmlns="http://www.w3.org/2000/svg" width="24" height="24" viewBox="0 0 24 24">
  <g id="icon-sugerir" transform="translate(-18620 19915)">
    <rect id="box" width="24" height="24" transform="translate(18620 -19915)" fill="rgba(255,255,255,0)"/>
    <path id="icon" d="M80-856v-21.6a2.311,2.311,0,0,1,.705-1.7A2.311,2.311,0,0,1,82.4-880h19.2a2.311,2.311,0,0,1,1.695.705,2.311,2.311,0,0,1,.705,1.7v14.4a2.311,2.311,0,0,1-.705,1.7,2.311,2.311,0,0,1-1.695.705H84.8Zm12-8.4a1.161,1.161,0,0,0,.855-.345,1.161,1.161,0,0,0,.345-.855,1.161,1.161,0,0,0-.345-.855A1.161,1.161,0,0,0,92-866.8a1.161,1.161,0,0,0-.855.345,1.161,1.161,0,0,0-.345.855,1.161,1.161,0,0,0,.345.855A1.161,1.161,0,0,0,92-864.4Zm-1.2-4.8h2.4v-7.2H90.8Z" transform="translate(18540 -19035)" fill="#0074c8"/>
  </g>
</svg>
