<svg xmlns="http://www.w3.org/2000/svg" width="16" height="16" viewBox="0 0 16 16">
  <g id="icon-contributos" transform="translate(-202 -1214)">
    <rect id="box" width="16" height="16" transform="translate(202 1214)" fill="rgba(255,255,255,0)"/>
    <g id="icon" transform="translate(202 1214)">
      <path id="Path_3245" data-name="Path 3245" d="M297.5,464.534a1.548,1.548,0,0,0,3.1,0v-.786h-3.1Z" transform="translate(-291.046 -450.083)" fill="#fff"/>
      <path id="Path_3246" data-name="Path 3246" d="M527.064,253.749a.774.774,0,0,0-.727.516H525v.516h1.337a.773.773,0,1,0,.727-1.032Z" transform="translate(-511.838 -246.397)" fill="#fff"/>
      <path id="Path_3247" data-name="Path 3247" d="M79.418,253.749a.774.774,0,1,0,.727,1.032h1.338v-.516H80.145a.774.774,0,0,0-.727-.516Z" transform="translate(-78.641 -246.397)" fill="#fff"/>
      <path id="Path_3248" data-name="Path 3248" d="M467.913,82.857l.946-.946a.774.774,0,1,0-.365-.365l-.946.946Z" transform="translate(-456.08 -78.322)" fill="#fff"/>
      <path id="Path_3249" data-name="Path 3249" d="M152.487,397.55l-.946.946a.774.774,0,1,0,.365.365l.946-.946Z" transform="translate(-148.316 -385.837)" fill="#fff"/>
      <path id="Path_3250" data-name="Path 3250" d="M468.649,399.743a.774.774,0,1,0,.216-1.243l-.946-.946-.365.365.945.946a.772.772,0,0,0,.149.879Z" transform="translate(-456.086 -385.841)" fill="#fff"/>
      <path id="Path_3251" data-name="Path 3251" d="M151.753,80.661a.774.774,0,1,0-.216,1.243l.946.946.365-.365-.946-.946a.772.772,0,0,0-.149-.879Z" transform="translate(-148.312 -78.315)" fill="#fff"/>
      <path id="Path_3252" data-name="Path 3252" d="M324.783,11.482V10.145a.774.774,0,1,0-.516,0v1.338Z" transform="translate(-316.524 -8.641)" fill="#fff"/>
      <path id="Path_3253" data-name="Path 3253" d="M201.248,135.766a4.582,4.582,0,0,0,.779,2.559,4.4,4.4,0,0,0,2.059,1.65v.824h1.29v-3.024l-1.677-.983a.266.266,0,0,1-.129-.23v-.578a.786.786,0,0,1-.482-.517.812.812,0,0,1,.118-.705.762.762,0,0,1,1.245,0,.812.812,0,0,1,.118.705.786.786,0,0,1-.482.517v.424l1.29.757v-2.24a.786.786,0,0,1-.482-.517.812.812,0,0,1,.118-.705.762.762,0,0,1,1.245,0,.812.812,0,0,1,.118.705.786.786,0,0,1-.482.517V138.1l1.29-1.135v-.456A.786.786,0,0,1,206.7,136a.812.812,0,0,1,.118-.705.762.762,0,0,1,1.245,0,.812.812,0,0,1,.118.705.786.786,0,0,1-.482.517v.578a.268.268,0,0,1-.09.2l-1.716,1.51v2h1.29v-.824a4.424,4.424,0,0,0,2.33-2.115,4.607,4.607,0,0,0,.377-3.169,4.5,4.5,0,0,0-1.766-2.628,4.3,4.3,0,0,0-3.02-.765,4.35,4.35,0,0,0-2.754,1.484,4.569,4.569,0,0,0-1.1,2.986Z" transform="translate(-197.633 -127.648)" fill="#fff"/>
    </g>
  </g>
</svg>
