<svg xmlns="http://www.w3.org/2000/svg" width="16" height="16" viewBox="0 0 16 16">
  <path id="icon-conhecimento" d="M62.993-890a7.846,7.846,0,0,1-3.114-.622,8.011,8.011,0,0,1-2.546-1.711,8.018,8.018,0,0,1-1.711-2.543A7.828,7.828,0,0,1,55-897.988a7.894,7.894,0,0,1,.622-3.133,7.936,7.936,0,0,1,1.708-2.538,8.168,8.168,0,0,1,2.542-1.711,7.751,7.751,0,0,1,3.114-.63,7.838,7.838,0,0,1,3.137.629,8.073,8.073,0,0,1,2.538,1.707,8.065,8.065,0,0,1,1.709,2.536,7.826,7.826,0,0,1,.63,3.137,7.76,7.76,0,0,1-.63,3.116,8.173,8.173,0,0,1-1.711,2.543,7.937,7.937,0,0,1-2.535,1.709A7.874,7.874,0,0,1,62.993-890Zm0-1.767a6.006,6.006,0,0,0,4.409-1.812,6,6,0,0,0,1.814-4.411A6,6,0,0,0,67.4-902.4a6.013,6.013,0,0,0-4.418-1.814,5.991,5.991,0,0,0-4.4,1.814,6.013,6.013,0,0,0-1.814,4.418,6,6,0,0,0,1.812,4.4A6,6,0,0,0,62.991-891.767ZM62.991-897.991Z" transform="translate(-55 906)" fill="#007ae5"/>
</svg>
