<svg xmlns="http://www.w3.org/2000/svg" width="24" height="24" viewBox="0 0 24 24">
  <path id="icon-funcionalidades" d="M139.717-799a2.625,2.625,0,0,1-1.93-.787,2.625,2.625,0,0,1-.787-1.93,2.6,2.6,0,0,1,.787-1.924,2.635,2.635,0,0,1,1.93-.781,2.615,2.615,0,0,1,1.924.781,2.615,2.615,0,0,1,.781,1.924,2.635,2.635,0,0,1-.781,1.93A2.6,2.6,0,0,1,139.717-799Zm9.3,0a2.613,2.613,0,0,1-1.92-.787,2.625,2.625,0,0,1-.787-1.93,2.628,2.628,0,0,1,.774-1.924,2.579,2.579,0,0,1,1.907-.781,2.623,2.623,0,0,1,1.92.781,2.6,2.6,0,0,1,.787,1.924,2.648,2.648,0,0,1-.774,1.93A2.569,2.569,0,0,1,149.013-799Zm9.269,0a2.6,2.6,0,0,1-1.924-.787,2.635,2.635,0,0,1-.781-1.93,2.615,2.615,0,0,1,.781-1.924,2.615,2.615,0,0,1,1.924-.781,2.635,2.635,0,0,1,1.93.781,2.6,2.6,0,0,1,.787,1.924,2.625,2.625,0,0,1-.787,1.93A2.625,2.625,0,0,1,158.283-799Zm-18.565-9.306a2.648,2.648,0,0,1-1.93-.774,2.569,2.569,0,0,1-.787-1.907,2.613,2.613,0,0,1,.787-1.92,2.624,2.624,0,0,1,1.93-.787,2.628,2.628,0,0,1,1.924.774,2.579,2.579,0,0,1,.781,1.907,2.623,2.623,0,0,1-.781,1.92A2.6,2.6,0,0,1,139.717-808.306Zm9.3,0a2.636,2.636,0,0,1-1.92-.774,2.569,2.569,0,0,1-.787-1.907,2.636,2.636,0,0,1,.774-1.92,2.569,2.569,0,0,1,1.907-.787,2.636,2.636,0,0,1,1.92.774,2.569,2.569,0,0,1,.787,1.907,2.636,2.636,0,0,1-.774,1.92A2.569,2.569,0,0,1,149.013-808.306Zm9.269,0a2.628,2.628,0,0,1-1.924-.774,2.579,2.579,0,0,1-.781-1.907,2.623,2.623,0,0,1,.781-1.92,2.6,2.6,0,0,1,1.924-.787,2.648,2.648,0,0,1,1.93.774,2.569,2.569,0,0,1,.787,1.907,2.613,2.613,0,0,1-.787,1.92A2.625,2.625,0,0,1,158.283-808.306Zm-18.565-9.271a2.635,2.635,0,0,1-1.93-.781,2.6,2.6,0,0,1-.787-1.924,2.624,2.624,0,0,1,.787-1.93,2.625,2.625,0,0,1,1.93-.787,2.6,2.6,0,0,1,1.924.787,2.635,2.635,0,0,1,.781,1.93,2.615,2.615,0,0,1-.781,1.924A2.615,2.615,0,0,1,139.717-817.577Zm9.3,0a2.623,2.623,0,0,1-1.92-.781,2.6,2.6,0,0,1-.787-1.924,2.648,2.648,0,0,1,.774-1.93,2.569,2.569,0,0,1,1.907-.787,2.613,2.613,0,0,1,1.92.787,2.624,2.624,0,0,1,.787,1.93,2.628,2.628,0,0,1-.774,1.924A2.579,2.579,0,0,1,149.013-817.577Zm9.269,0a2.615,2.615,0,0,1-1.924-.781,2.615,2.615,0,0,1-.781-1.924,2.635,2.635,0,0,1,.781-1.93,2.6,2.6,0,0,1,1.924-.787,2.625,2.625,0,0,1,1.93.787,2.624,2.624,0,0,1,.787,1.93,2.6,2.6,0,0,1-.787,1.924A2.635,2.635,0,0,1,158.283-817.577Z" transform="translate(-137 823)" fill="#fff"/>
</svg>
