<svg xmlns="http://www.w3.org/2000/svg" width="16" height="16" viewBox="0 0 16 16">
  <g id="icon-movimentos" transform="translate(-132 -738)">
    <rect id="box" width="16" height="16" transform="translate(132 738)" fill="rgba(255,255,255,0)"/>
    <g id="icon" transform="translate(132 740.001)">
      <path id="Path_3270" data-name="Path 3270" d="M116.389,255.459v.52a2.858,2.858,0,0,1-2.857,2.857H108.91v.828a.572.572,0,0,1-.354.531.562.562,0,0,1-.217.04.575.575,0,0,1-.406-.166l-2.805-2.805a.569.569,0,0,1,0-.806l2.805-2.805a.572.572,0,0,1,.977.4v.834h6.907a.573.573,0,0,1,.571.571Z" transform="translate(-104.961 -249.034)" fill="black"/>
      <path id="Path_3271" data-name="Path 3271" d="M256.269,120.943l-2.805,2.805a.573.573,0,0,1-.977-.4v-.834H245.58a.573.573,0,0,1-.571-.571v-.52a2.858,2.858,0,0,1,2.857-2.857h4.622v-.828a.572.572,0,0,1,.977-.406l2.805,2.805a.569.569,0,0,1,0,.806Z" transform="translate(-240.436 -117.164)" fill="black"/>
    </g>
  </g>
</svg>
