<svg xmlns="http://www.w3.org/2000/svg" width="63.998" height="63.998" viewBox="0 0 63.998 63.998">
  <path id="icon-alerta" d="M112-832a3.1,3.1,0,0,0,2.28-.92,3.1,3.1,0,0,0,.92-2.28,3.1,3.1,0,0,0-.92-2.28,3.1,3.1,0,0,0-2.28-.92,3.1,3.1,0,0,0-2.28.92,3.1,3.1,0,0,0-.92,2.28,3.1,3.1,0,0,0,.92,2.28A3.1,3.1,0,0,0,112-832Zm-3.2-12.8h6.4V-864h-6.4ZM112-816a31.161,31.161,0,0,1-12.48-2.52,32.315,32.315,0,0,1-10.16-6.84,32.313,32.313,0,0,1-6.84-10.16A31.159,31.159,0,0,1,80-848a31.159,31.159,0,0,1,2.52-12.48,32.314,32.314,0,0,1,6.84-10.16,32.316,32.316,0,0,1,10.16-6.84A31.159,31.159,0,0,1,112-880a31.159,31.159,0,0,1,12.48,2.52,32.316,32.316,0,0,1,10.16,6.84,32.315,32.315,0,0,1,6.84,10.16A31.159,31.159,0,0,1,144-848a31.159,31.159,0,0,1-2.52,12.48,32.314,32.314,0,0,1-6.84,10.16,32.315,32.315,0,0,1-10.16,6.84A31.16,31.16,0,0,1,112-816Z" transform="translate(-80 880)" fill="#ff5050"/>
</svg>
