<svg xmlns="http://www.w3.org/2000/svg" width="24" height="24" viewBox="0 0 24 24">
  <g id="icon-esconderpass" transform="translate(-2636 21363)">
    <rect id="box" width="24" height="24" transform="translate(2636 -21363)" fill="rgba(255,255,255,0)"/>
    <path id="icon" d="M60.509-826.4l-4.582-4.527a13.092,13.092,0,0,1-1.923.45,13.074,13.074,0,0,1-2,.15,12.387,12.387,0,0,1-7.336-2.277,12.984,12.984,0,0,1-4.664-5.9,12.93,12.93,0,0,1,1.445-2.686,12.561,12.561,0,0,1,1.991-2.223l-3-3.055L41.964-848l20.073,20.073ZM52-833.6a5.354,5.354,0,0,0,.559-.027,3.547,3.547,0,0,0,.559-.109l-5.891-5.891a3.549,3.549,0,0,0-.109.559,5.355,5.355,0,0,0-.027.559,4.734,4.734,0,0,0,1.432,3.477A4.734,4.734,0,0,0,52-833.6Zm7.964.491L56.5-836.545a5.95,5.95,0,0,0,.3-.941,4.582,4.582,0,0,0,.109-1.023,4.734,4.734,0,0,0-1.432-3.477A4.734,4.734,0,0,0,52-843.418a4.581,4.581,0,0,0-1.023.109,4.627,4.627,0,0,0-.941.327l-2.782-2.782a12.089,12.089,0,0,1,2.291-.7A12.635,12.635,0,0,1,52-846.691a12.387,12.387,0,0,1,7.336,2.277,12.984,12.984,0,0,1,4.664,5.9,12.761,12.761,0,0,1-1.65,2.986A12.007,12.007,0,0,1,59.964-833.109Zm-5.045-5.018L51.645-841.4a2.5,2.5,0,0,1,1.4.123,3.1,3.1,0,0,1,1.1.75,2.922,2.922,0,0,1,.668,1.132A2.633,2.633,0,0,1,54.918-838.127Z" transform="translate(2596 -20514)" fill="#1f2125"/>
  </g>
</svg>
