<svg xmlns="http://www.w3.org/2000/svg" width="16" height="16" viewBox="0 0 16 16">
  <g id="icon-anexos" transform="translate(-7521 20335)">
    <rect id="box" width="16" height="16" transform="translate(7521 -20335)" fill="rgba(255,255,255,0)"/>
    <g id="icon" transform="translate(7521 -20335)">
      <path id="Path_3243" data-name="Path 3243" d="M182.746,100.8h-.088a5.223,5.223,0,0,0-3.712,1.539l-5.533,5.529a5.265,5.265,0,0,0,6.521,8.161,1,1,0,1,0-1.071-1.694,3.259,3.259,0,0,1-4.03-5.048l5.53-5.529a3.228,3.228,0,0,1,2.295-.952h.083a3.176,3.176,0,0,1,3.172,3.186v.15a3.027,3.027,0,0,1-.893,2.153l-2.453,2.451h0a1.126,1.126,0,1,1-1.59-1.589l2.134-2.133a1,1,0,0,0-1.419-1.419l-2.134,2.133a3.132,3.132,0,0,0,4.432,4.426l2.453-2.451h0a5.011,5.011,0,0,0,1.482-3.569v-.15a5.182,5.182,0,0,0-5.179-5.193Z" transform="translate(-171.925 -100.8)" fill="#fff"/>
    </g>
  </g>
</svg>
