<svg xmlns="http://www.w3.org/2000/svg" width="16" height="16" viewBox="0 0 16 16">
  <g id="icon-relacionados" transform="translate(-85 -731)">
    <rect id="box" width="16" height="16" transform="translate(85 731)" fill="rgba(255,255,255,0)"/>
    <g id="icon" transform="translate(85 732)">
      <path id="Path_3230" data-name="Path 3230" d="M440.353,346.38a2.493,2.493,0,1,0,2.493,2.493A2.5,2.5,0,0,0,440.353,346.38Z" transform="translate(-426.846 -336.841)" fill="#fff"/>
      <path id="Path_3231" data-name="Path 3231" d="M313.8,401.639a.6.6,0,0,0-.012.848l1.438,1.477h0a.6.6,0,1,0,.86-.839l-1.438-1.474a.6.6,0,0,0-.848-.012Z" transform="translate(-306.87 -390.042)" fill="#fff"/>
      <path id="Path_3232" data-name="Path 3232" d="M315.607,357.04a.6.6,0,0,0-.413.195l-1.388,1.521h0a.6.6,0,0,0,.886.809l1.388-1.521a.6.6,0,0,0-.473-1Z" transform="translate(-306.895 -347.135)" fill="#fff"/>
      <path id="Path_3233" data-name="Path 3233" d="M202.529,246.183a.6.6,0,0,0-.821.222l-2.129,3.688h0a.6.6,0,1,0,1.04.6L202.747,247a.6.6,0,0,0-.218-.821Z" transform="translate(-196.658 -240.001)" fill="#fff"/>
      <path id="Path_3234" data-name="Path 3234" d="M205.849,246.206l-2,.5a.6.6,0,1,0,.3,1.164l2-.508a.6.6,0,1,0-.3-1.161Z" transform="translate(-200.427 -240.083)" fill="#fff"/>
      <path id="Path_3235" data-name="Path 3235" d="M262.1,246.175a.6.6,0,0,0-.387.753l.623,1.964a.6.6,0,1,0,1.146-.366l-.626-1.961a.6.6,0,0,0-.756-.39Z" transform="translate(-256.709 -240.044)" fill="#fff"/>
      <path id="Path_3236" data-name="Path 3236" d="M279.676,68.182a2.473,2.473,0,0,0-1.179.331,2.5,2.5,0,1,0,1.179-.331Z" transform="translate(-271.746 -68.181)" fill="#fff"/>
      <path id="Path_3237" data-name="Path 3237" d="M361.492,173.135a.6.6,0,0,0-.219.818l2.091,3.627h0a.6.6,0,1,0,1.04-.6l-2.091-3.624h0a.6.6,0,0,0-.821-.218Z" transform="translate(-352.809 -169.458)" fill="#fff"/>
      <path id="Path_3238" data-name="Path 3238" d="M423.532,220.943a.6.6,0,0,0-.741.416l-.558,1.982h0a.6.6,0,1,0,1.155.325l.558-1.982a.6.6,0,0,0-.413-.741Z" transform="translate(-411.733 -215.683)" fill="#fff"/>
      <path id="Path_3239" data-name="Path 3239" d="M364.208,265.891a.6.6,0,0,0-.257,1.172l2.014.443h0a.6.6,0,0,0,.257-1.173Z" transform="translate(-355.018 -259.099)" fill="#fff"/>
      <path id="Path_3240" data-name="Path 3240" d="M119.188,346.38a2.493,2.493,0,1,0,2.495,2.493A2.5,2.5,0,0,0,119.188,346.38Z" transform="translate(-116.695 -336.841)" fill="#fff"/>
      <path id="Path_3241" data-name="Path 3241" d="M314.256,401.41a.6.6,0,0,0,0,1.2h4.262a.6.6,0,0,0,0-1.2Z" transform="translate(-306.902 -389.984)" fill="#fff"/>
      <path id="Path_3242" data-name="Path 3242" d="M314.256,401.41a.6.6,0,0,0,0,1.2h4.262a.6.6,0,0,0,0-1.2Z" transform="translate(-306.902 -389.984)" fill="#fff"/>
    </g>
  </g>
</svg>
