<svg xmlns="http://www.w3.org/2000/svg" width="16" height="16.001" viewBox="0 0 16 16.001">
  <g id="icon-versionamento" transform="translate(-193 -1107.999)">
    <rect id="box" width="16" height="16" transform="translate(193 1108)" fill="rgba(255,255,255,0)"/>
    <g id="icon" transform="translate(195 1107.999)">
      <path id="Path_3224" data-name="Path 3224" d="M181.563,30.831a2.253,2.253,0,0,0-1.037,4.238l-.054.125h0a2.95,2.95,0,0,1-2.432,1.77h-.072a4.364,4.364,0,0,0-2.521,1.109V33.8a2.253,2.253,0,1,0-1.431,0v7.224a2.253,2.253,0,1,0,1.448,0,2.932,2.932,0,0,1,2.646-2.611h.072a4.381,4.381,0,0,0,3.594-2.646l.2-.483a2.253,2.253,0,0,0-.429-4.452Zm-6.831.018a.822.822,0,1,1-.582.241A.823.823,0,0,1,174.732,30.849Zm0,13.125a.823.823,0,1,1,.582-.241A.823.823,0,0,1,174.732,43.974Zm6.831-10.067a.822.822,0,1,1,.582-.241A.822.822,0,0,1,181.563,33.907Z" transform="translate(-172.479 -29.41)" fill="#fff"/>
    </g>
  </g>
</svg>
