<svg xmlns="http://www.w3.org/2000/svg" width="230.469" height="47" viewBox="0 0 230.469 47">
  <g id="logo-ag" transform="translate(-3 -2.5)">
    <path id="Path_65" data-name="Path 65" d="M27.41,49.49h-.02v.01h-.32C13.78,49.5,3,38.98,3,26S13.78,2.5,27.07,2.5h.34v9.21H27.1A14.456,14.456,0,0,0,12.47,25.991,14.451,14.451,0,0,0,27.11,40.27h.3Z" fill="#fff" fill-rule="evenodd"/>
    <path id="Path_66" data-name="Path 66" d="M30.96,29.35a2.1,2.1,0,0,1-1,.23,2.582,2.582,0,0,1-2.64-2.371v-4.02l.06-.46.06-.01h5.05v3.96S32.34,28.76,30.96,29.35Z" fill="#fff" fill-rule="evenodd"/>
    <path id="Path_67" data-name="Path 67" d="M43.89,29.35a2.112,2.112,0,0,1-1.01.23,2.579,2.579,0,0,1-2.63-2.371v-4.02l.06-.46.06-.01h5.05v3.96S45.27,28.76,43.89,29.35Z" fill="#fff" fill-rule="evenodd"/>
    <path id="Path_68" data-name="Path 68" d="M37.08,37.43a1.96,1.96,0,0,1-.67.109,2.566,2.566,0,0,1-2.63-2.35V31.16l.05.439.22-.02h4.9v3.968A2.4,2.4,0,0,1,37.08,37.43Z" fill="#fff" fill-rule="evenodd"/>
    <path id="Path_69" data-name="Path 69" d="M37.41,29.35a2.129,2.129,0,0,1-1,.23,2.579,2.579,0,0,1-2.63-2.371v-4.02l.05-.46.22-.01h4.9v3.96S38.79,28.77,37.41,29.35Z" fill="#fff" fill-rule="evenodd"/>
    <path id="Path_70" data-name="Path 70" d="M37.08,21.5a2.249,2.249,0,0,1-.67.1,2.566,2.566,0,0,1-2.63-2.35V15.23l.05-.08.22-.03h4.9V19.1A2.824,2.824,0,0,1,37.08,21.5Z" fill="#fff" fill-rule="evenodd"/>
    <g id="Group_12" data-name="Group 12">
      <path id="Path_71" data-name="Path 71" d="M71.789,33.279l-1.1-3.044H65.72l-1.094,3.044H61.761l5.353-14.167H69.3l5.353,14.167ZM68.028,22.436h.358l-1.871,5.432H69.9Z" fill="#fff"/>
      <path id="Path_72" data-name="Path 72" d="M80.407,33.4a4.989,4.989,0,0,1-5.292-5.013V19.113H77.8v9.054a2.616,2.616,0,1,0,5.232,0V19.113h2.687v9.272A5,5,0,0,1,80.407,33.4Z" fill="#fff"/>
      <path id="Path_73" data-name="Path 73" d="M92.865,21.481v11.8H90.178v-11.8H86.3V19.113H96.744v2.368Z" fill="#fff"/>
      <path id="Path_74" data-name="Path 74" d="M97.583,33.279V19.113h9.59v2.468h-6.9v3.383h5.89v2.348h-5.89v3.5h6.9V33.28h-9.59Z" fill="#fff"/>
      <path id="Path_75" data-name="Path 75" d="M117.224,33.279l-6.406-9.709h.377v9.709h-2.686V19.113h2.428l6.406,9.71h-.357v-9.71h2.686V33.28h-2.448Z" fill="#fff"/>
      <path id="Path_76" data-name="Path 76" d="M127.076,21.481v11.8H124.39v-11.8h-3.881V19.113h10.447v2.368Z" fill="#fff"/>
      <path id="Path_77" data-name="Path 77" d="M131.794,33.279V19.113h2.686V33.28h-2.686Z" fill="#fff"/>
      <path id="Path_78" data-name="Path 78" d="M141.625,33.4a5.314,5.314,0,0,1-4.676-2.606c-.459-.835-.637-1.233-.637-4.6,0-3.383.178-3.779.637-4.615a5.341,5.341,0,0,1,4.676-2.588,5.274,5.274,0,0,1,5.293,4.557h-2.787a2.633,2.633,0,0,0-2.506-1.969,2.419,2.419,0,0,0-1.971.9c-.537.656-.656,1.035-.656,3.721,0,2.666.119,3.045.656,3.721a2.475,2.475,0,0,0,1.971.9,2.75,2.75,0,0,0,2.527-1.871h2.766A5.175,5.175,0,0,1,141.625,33.4Z" fill="#fff"/>
      <path id="Path_79" data-name="Path 79" d="M156.133,33.279l-1.094-3.044h-4.975l-1.1,3.044H146.1l5.354-14.167h2.188L159,33.279Zm-3.762-10.843h.359l-1.871,5.432h3.383Z" fill="#fff"/>
      <path id="Path_80" data-name="Path 80" d="M165.447,33.439l-.775,1.014-.219-.418a2.137,2.137,0,0,1,.576-.08,1.82,1.82,0,0,1,2.029,1.732c0,1.393-1.273,2.088-2.727,2.088a7.854,7.854,0,0,1-2.348-.557l.578-1.312a4.655,4.655,0,0,0,1.512.357c.5,0,.9-.139.9-.557,0-.338-.338-.438-.715-.438a1.615,1.615,0,0,0-.8.238l-.756-.637,1.055-1.412a5.378,5.378,0,0,1-3.881-2.567c-.457-.835-.637-1.233-.637-4.636,0-3.423.18-3.82.637-4.656a5.4,5.4,0,0,1,9.969,1.991h-2.785a2.629,2.629,0,0,0-2.508-1.99,2.477,2.477,0,0,0-1.969.9c-.537.678-.656,1.035-.656,3.762,0,2.7.119,3.064.656,3.74a2.485,2.485,0,0,0,1.969.916,2.748,2.748,0,0,0,2.527-1.871h2.766A5.109,5.109,0,0,1,165.447,33.439Z" fill="#fff"/>
      <path id="Path_81" data-name="Path 81" d="M179.059,33.279l-1.094-3.044H172.99L171.9,33.279h-2.865l5.352-14.167h2.189l5.352,14.167ZM176.83,18.118c-1.014,0-2.068-.6-2.865-.6-.2,0-.557.1-.557.7h-1.771a2.5,2.5,0,0,1,2.547-2.328c1,0,1.891.617,2.707.617.277,0,.576-.1.717-.716h1.73C179.039,17.123,178.3,18.118,176.83,18.118ZM175.3,22.436h.357l-1.869,5.432h3.381Z" fill="#fff"/>
      <path id="Path_82" data-name="Path 82" d="M192.154,30.792a5.5,5.5,0,0,1-9.352,0c-.457-.835-.637-1.233-.637-4.6,0-3.383.18-3.779.637-4.615a5.518,5.518,0,0,1,9.352,0c.457.836.656,1.232.656,4.615C192.811,29.559,192.611,29.958,192.154,30.792Zm-2.705-8.317a2.618,2.618,0,0,0-3.942,0c-.537.656-.656,1.035-.656,3.721,0,2.666.119,3.045.656,3.721a2.616,2.616,0,0,0,3.942,0c.537-.676.676-1.055.676-3.721C190.125,23.51,189.986,23.131,189.449,22.475Z" fill="#fff"/>
      <path id="Path_83" data-name="Path 83" d="M194.523,33.279V31.25h2.566v2.029Z" fill="#fff"/>
      <path id="Path_84" data-name="Path 84" d="M204.115,33.4a5.314,5.314,0,0,1-4.676-2.606c-.457-.835-.637-1.233-.637-4.6,0-3.383.18-3.779.637-4.615a5.341,5.341,0,0,1,4.676-2.588,5.273,5.273,0,0,1,5.293,4.557h-2.785a2.633,2.633,0,0,0-2.508-1.969,2.415,2.415,0,0,0-1.969.9c-.537.656-.656,1.035-.656,3.721,0,2.666.119,3.045.656,3.721a2.471,2.471,0,0,0,1.969.9,2.571,2.571,0,0,0,2.646-2.646v-.438h-2.885V25.241h5.572v3.045A5.185,5.185,0,0,1,204.115,33.4Z" fill="#fff"/>
      <path id="Path_85" data-name="Path 85" d="M220.793,30.792a5.5,5.5,0,0,1-9.354,0c-.457-.835-.637-1.233-.637-4.6,0-3.383.18-3.779.637-4.615a5.52,5.52,0,0,1,9.354,0c.457.836.656,1.232.656,4.615C221.449,29.559,221.25,29.958,220.793,30.792Zm-2.707-8.317a2.616,2.616,0,0,0-3.94,0c-.537.656-.656,1.035-.656,3.721,0,2.666.119,3.045.656,3.721a2.614,2.614,0,0,0,3.94,0c.537-.676.676-1.055.676-3.721C218.762,23.51,218.623,23.131,218.086,22.475Z" fill="#fff"/>
      <path id="Path_86" data-name="Path 86" d="M228.613,33.279h-2.068L221.69,19.112h2.846L227.759,29.5H227.4l3.223-10.386h2.846Z" fill="#fff"/>
    </g>
  </g>
</svg>
