<svg xmlns="http://www.w3.org/2000/svg" width="96.948" height="40" viewBox="0 0 96.948 40">
  <g id="logo-temp--small" transform="translate(-139.001 -30)">
    <g id="noun-file-1053005" transform="translate(139.001 30)">
      <path id="Path_3218" data-name="Path 3218" d="M96.522,176.46V172.3H95.69a4.118,4.118,0,0,0-4.158,4.158v1.746a5.775,5.775,0,0,1,4.158-1.747Z" transform="translate(-91.532 -160.66)" fill="#0074c8"/>
      <path id="Path_3219" data-name="Path 3219" d="M189.317,25.848l-6.237,6.32h6.237Z" transform="translate(-176.011 -25.515)" fill="#0074c8"/>
      <path id="Path_3220" data-name="Path 3220" d="M186.506,35.174l1.247-2.245a9.135,9.135,0,0,1,8.066-4.74H204.3V24.031a2.45,2.45,0,0,0-2.495-2.495h-15.8V29.02a.834.834,0,0,1-.832.832h-7.484v7.484h5.239a4,4,0,0,0,3.576-2.162Z" transform="translate(-171.038 -21.536)" fill="#fff"/>
      <path id="Path_3221" data-name="Path 3221" d="M127.293,129.229H116.315a7.492,7.492,0,0,0-6.57,3.909l-1.247,2.245a5.787,5.787,0,0,1-5.156,3.077H95.692a4.118,4.118,0,0,0-4.158,4.158v14.137a4.17,4.17,0,0,0,4.158,4.158h31.6a4.118,4.118,0,0,0,4.158-4.158V133.387a4.117,4.117,0,0,0-4.158-4.158Z" transform="translate(-91.534 -120.913)" fill="#0074c8"/>
    </g>
    <path id="Path_3222" data-name="Path 3222" d="M5.717-3.218a.791.791,0,0,1-.6-.206,1.529,1.529,0,0,1-.3-.481L.855-16.622A.735.735,0,0,1,.8-16.9a.561.561,0,0,1,.192-.426.628.628,0,0,1,.439-.179H4.261a.793.793,0,0,1,.563.192.873.873,0,0,1,.261.385L7.392-9.068,9.864-16.9a.96.96,0,0,1,.261-.4.8.8,0,0,1,.591-.206h1.813a.849.849,0,0,1,.6.206.714.714,0,0,1,.247.4l2.472,7.828,2.307-7.856a.872.872,0,0,1,.261-.385.793.793,0,0,1,.563-.192h2.829a.628.628,0,0,1,.439.179.561.561,0,0,1,.192.426.735.735,0,0,1-.055.275L18.434-3.9a1.129,1.129,0,0,1-.288.481.839.839,0,0,1-.618.206H15.056a.849.849,0,0,1-.6-.206,1.074,1.074,0,0,1-.3-.481l-2.527-7.526L9.1-3.9a1.074,1.074,0,0,1-.3.481.849.849,0,0,1-.6.206Zm23.293.275A7.357,7.357,0,0,1,23.846-4.7,6.96,6.96,0,0,1,21.84-9.92v-.961a7.968,7.968,0,0,1,.975-3.722,5.911,5.911,0,0,1,2.472-2.362,7.99,7.99,0,0,1,3.694-.81,7.577,7.577,0,0,1,4,.961A6.111,6.111,0,0,1,35.355-14.2a8.542,8.542,0,0,1,.8,3.763v.659a.669.669,0,0,1-.192.494.669.669,0,0,1-.494.192h-8.79V-8.9a4.335,4.335,0,0,0,.288,1.456A2.366,2.366,0,0,0,27.732-6.4a2.011,2.011,0,0,0,1.25.385A2.114,2.114,0,0,0,29.9-6.2a2.423,2.423,0,0,0,.618-.412,4.832,4.832,0,0,0,.385-.4,1.357,1.357,0,0,1,.4-.371,1.239,1.239,0,0,1,.481-.069H35.19a.642.642,0,0,1,.453.165.5.5,0,0,1,.151.439,2.415,2.415,0,0,1-.467,1.126,5.672,5.672,0,0,1-1.277,1.3,6.945,6.945,0,0,1-2.1,1.058A9.492,9.492,0,0,1,29.01-2.943Zm-2.335-8.872h4.642v-.055a4.138,4.138,0,0,0-.261-1.552,2.127,2.127,0,0,0-.8-1,2.249,2.249,0,0,0-1.277-.357,2.135,2.135,0,0,0-1.236.357,2.243,2.243,0,0,0-.8,1,3.953,3.953,0,0,0-.275,1.552Zm18.87,8.872a5.671,5.671,0,0,1-2.555-.522,5.176,5.176,0,0,1-1.7-1.318V-3.9a.659.659,0,0,1-.206.481.659.659,0,0,1-.481.206H37.5A.646.646,0,0,1,37-3.424.682.682,0,0,1,36.81-3.9V-22.033A.669.669,0,0,1,37-22.528a.669.669,0,0,1,.494-.192h3.351a.669.669,0,0,1,.494.192.669.669,0,0,1,.192.494v5.878a5.436,5.436,0,0,1,1.676-1.167,5.561,5.561,0,0,1,2.335-.453,6.123,6.123,0,0,1,2.431.453,5,5,0,0,1,1.8,1.291A5.952,5.952,0,0,1,50.929-14a9.163,9.163,0,0,1,.467,2.651q.027.549.027.975T51.4-9.4a9.408,9.408,0,0,1-.467,2.733,5.831,5.831,0,0,1-1.167,2.033,4.868,4.868,0,0,1-1.8,1.264A6.365,6.365,0,0,1,45.545-2.943ZM44.062-6.624a2.414,2.414,0,0,0,1.456-.385,2.151,2.151,0,0,0,.755-1.044,5.476,5.476,0,0,0,.288-1.456,13.213,13.213,0,0,0,0-1.7,5.476,5.476,0,0,0-.288-1.456,2.151,2.151,0,0,0-.755-1.044,2.414,2.414,0,0,0-1.456-.385,2.453,2.453,0,0,0-1.4.371,2.324,2.324,0,0,0-.824.961,3.311,3.311,0,0,0-.3,1.277q-.027.522-.027,1.016t.027,1.044a4.7,4.7,0,0,0,.3,1.373,2.268,2.268,0,0,0,.8,1.03A2.376,2.376,0,0,0,44.062-6.624Z" transform="translate(184.525 52.72)" fill="#fff"/>
    <path id="Path_3223" data-name="Path 3223" d="M7.131-2.943a6.313,6.313,0,0,1-2.376-.426A4.844,4.844,0,0,1,2.942-4.632,5.831,5.831,0,0,1,1.774-6.665,9.407,9.407,0,0,1,1.307-9.4q-.027-.549-.027-.975t.027-.975A9.163,9.163,0,0,1,1.774-14a5.952,5.952,0,0,1,1.154-2.033,4.972,4.972,0,0,1,1.813-1.291,6.076,6.076,0,0,1,2.39-.453,5.634,5.634,0,0,1,2.362.453,5.436,5.436,0,0,1,1.676,1.167v-5.878a.669.669,0,0,1,.192-.494.669.669,0,0,1,.494-.192h3.351a.682.682,0,0,1,.481.192.646.646,0,0,1,.206.494V-3.9a.659.659,0,0,1-.206.481.659.659,0,0,1-.481.206H12.1a.646.646,0,0,1-.494-.206.682.682,0,0,1-.192-.481v-.879a5.176,5.176,0,0,1-1.7,1.318A5.74,5.74,0,0,1,7.131-2.943ZM8.641-6.624a2.364,2.364,0,0,0,1.442-.4,2.4,2.4,0,0,0,.8-1.03,3.952,3.952,0,0,0,.288-1.373q.027-.549.027-1.044t-.027-1.016a3.311,3.311,0,0,0-.3-1.277,2.324,2.324,0,0,0-.824-.961,2.453,2.453,0,0,0-1.4-.371,2.426,2.426,0,0,0-1.442.385,2.12,2.12,0,0,0-.769,1.044,5.476,5.476,0,0,0-.288,1.456,8.819,8.819,0,0,0,0,1.7A5.476,5.476,0,0,0,6.43-8.052,2.12,2.12,0,0,0,7.2-7.008,2.426,2.426,0,0,0,8.641-6.624ZM23.969-2.943a9.112,9.112,0,0,1-3.887-.742,5.442,5.442,0,0,1-2.417-2.129,7.087,7.087,0,0,1-.948-3.31q-.027-.549-.027-1.25t.027-1.222a6.766,6.766,0,0,1,.989-3.324,5.735,5.735,0,0,1,2.458-2.115,8.894,8.894,0,0,1,3.8-.742,8.966,8.966,0,0,1,3.832.742,5.735,5.735,0,0,1,2.458,2.115,6.766,6.766,0,0,1,.989,3.324q.027.522.027,1.222t-.027,1.25a7.087,7.087,0,0,1-.948,3.31,5.442,5.442,0,0,1-2.417,2.129A9.186,9.186,0,0,1,23.969-2.943Zm0-3.351a2.114,2.114,0,0,0,1.8-.742,4.039,4.039,0,0,0,.645-2.225q.027-.412.027-1.1t-.027-1.1a4.063,4.063,0,0,0-.645-2.211,2.1,2.1,0,0,0-1.8-.755,2.11,2.11,0,0,0-1.772.755,3.777,3.777,0,0,0-.645,2.211q-.027.412-.027,1.1t.027,1.1A3.759,3.759,0,0,0,22.2-7.036,2.128,2.128,0,0,0,23.969-6.294ZM38.636-2.943a8.313,8.313,0,0,1-3.6-.742,5.93,5.93,0,0,1-2.486-2.156,6.606,6.606,0,0,1-1-3.392q-.027-.439-.027-1.112t.027-1.112a6.735,6.735,0,0,1,.989-3.42,5.822,5.822,0,0,1,2.486-2.156,8.4,8.4,0,0,1,3.612-.742,8.878,8.878,0,0,1,3.255.536,6.725,6.725,0,0,1,2.2,1.332,6.1,6.1,0,0,1,1.264,1.634,3.7,3.7,0,0,1,.453,1.47.557.557,0,0,1-.192.481.7.7,0,0,1-.494.206H41.63a.71.71,0,0,1-.467-.137,1.265,1.265,0,0,1-.3-.412,2.552,2.552,0,0,0-.838-1.209,2.218,2.218,0,0,0-1.3-.357,2.068,2.068,0,0,0-1.689.714,3.625,3.625,0,0,0-.646,2.2q-.027,1.1,0,1.95a3.723,3.723,0,0,0,.659,2.2,2.065,2.065,0,0,0,1.676.687,2.2,2.2,0,0,0,1.346-.371,2.537,2.537,0,0,0,.8-1.195,1.265,1.265,0,0,1,.3-.412A.71.71,0,0,1,41.63-8.6h3.488a.731.731,0,0,1,.494.192.554.554,0,0,1,.192.494,3.681,3.681,0,0,1-.275,1.071,5.564,5.564,0,0,1-.769,1.318A5.856,5.856,0,0,1,43.4-4.262a7.506,7.506,0,0,1-2.019.948A9.189,9.189,0,0,1,38.636-2.943Z" transform="translate(184.045 72.943)" fill="#fff"/>
  </g>
</svg>
