<svg xmlns="http://www.w3.org/2000/svg" width="254.371" height="104.952" viewBox="0 0 254.371 104.952">
  <g id="Group_1344" data-name="Group 1344" transform="translate(-139.001 -30)">
    <g id="noun-file-1053005" transform="translate(139.001 30)">
      <path id="Path_3218" data-name="Path 3218" d="M104.624,183.212V172.3h-2.182a10.8,10.8,0,0,0-10.91,10.91v4.582a15.151,15.151,0,0,1,10.91-4.583Z" transform="translate(-91.532 -141.756)" fill="#0074c8"/>
      <path id="Path_3219" data-name="Path 3219" d="M199.444,25.848,183.08,42.43h16.364Z" transform="translate(-164.532 -24.974)" fill="#0074c8"/>
      <path id="Path_3220" data-name="Path 3220" d="M200.82,57.319l3.272-5.891a23.969,23.969,0,0,1,21.164-12.436h22.256V28.082a6.429,6.429,0,0,0-6.546-6.546H199.51V41.173a2.187,2.187,0,0,1-2.182,2.182H177.691V62.992h13.746a10.507,10.507,0,0,0,9.382-5.673Z" transform="translate(-160.235 -21.536)" fill="#fff"/>
      <path id="Path_3221" data-name="Path 3221" d="M185.357,129.229h-28.8a19.657,19.657,0,0,0-17.237,10.255l-3.272,5.891a15.183,15.183,0,0,1-13.528,8.073H102.444a10.8,10.8,0,0,0-10.91,10.91v37.093a10.942,10.942,0,0,0,10.91,10.91h82.912a10.8,10.8,0,0,0,10.91-10.91V140.139a10.8,10.8,0,0,0-10.909-10.91Z" transform="translate(-91.534 -107.41)" fill="#0074c8"/>
    </g>
    <path id="Path_3222" data-name="Path 3222" d="M13.7,28.45a2.076,2.076,0,0,1-1.586-.541,4.012,4.012,0,0,1-.793-1.261L.944-6.72A1.928,1.928,0,0,1,.8-7.441a1.473,1.473,0,0,1,.5-1.117,1.647,1.647,0,0,1,1.153-.468H9.881a2.08,2.08,0,0,1,1.477.5,2.289,2.289,0,0,1,.685,1.009L18.1,13.1l6.486-20.54a2.518,2.518,0,0,1,.685-1.045,2.1,2.1,0,0,1,1.55-.541h4.757a2.226,2.226,0,0,1,1.586.541,1.872,1.872,0,0,1,.649,1.045L40.294,13.1,46.348-7.513a2.289,2.289,0,0,1,.685-1.009,2.08,2.08,0,0,1,1.477-.5h7.423a1.647,1.647,0,0,1,1.153.468,1.473,1.473,0,0,1,.5,1.117,1.928,1.928,0,0,1-.144.721L47.069,26.648a2.963,2.963,0,0,1-.757,1.261,2.2,2.2,0,0,1-1.622.541H38.2a2.226,2.226,0,0,1-1.586-.541,2.817,2.817,0,0,1-.793-1.261L29.2,6.9l-6.63,19.747a2.817,2.817,0,0,1-.793,1.261,2.226,2.226,0,0,1-1.586.541Zm61.115.721q-8.5,0-13.549-4.612T56.006,10.865V8.342a20.906,20.906,0,0,1,2.558-9.765,15.508,15.508,0,0,1,6.486-6.2,20.963,20.963,0,0,1,9.693-2.126A19.879,19.879,0,0,1,85.23-7.225,16.034,16.034,0,0,1,91.464-.378,22.414,22.414,0,0,1,93.554,9.5v1.73a1.728,1.728,0,0,1-1.8,1.8H68.69v.5a11.373,11.373,0,0,0,.757,3.82,6.207,6.207,0,0,0,2.018,2.739A5.277,5.277,0,0,0,74.744,21.1a5.546,5.546,0,0,0,2.414-.468,6.356,6.356,0,0,0,1.622-1.081A12.677,12.677,0,0,0,79.789,18.5a3.561,3.561,0,0,1,1.045-.973,3.252,3.252,0,0,1,1.261-.18h8.937a1.685,1.685,0,0,1,1.189.432,1.3,1.3,0,0,1,.4,1.153,6.337,6.337,0,0,1-1.225,2.955,14.882,14.882,0,0,1-3.351,3.423,18.222,18.222,0,0,1-5.513,2.775A24.9,24.9,0,0,1,74.816,29.17ZM68.69,5.892H80.87V5.748a10.858,10.858,0,0,0-.685-4.072A5.58,5.58,0,0,0,78.1-.955a5.9,5.9,0,0,0-3.351-.937A5.6,5.6,0,0,0,71.5-.955a5.885,5.885,0,0,0-2.09,2.631,10.373,10.373,0,0,0-.721,4.072ZM118.2,29.17a14.878,14.878,0,0,1-6.7-1.369,13.58,13.58,0,0,1-4.468-3.459v2.306a1.847,1.847,0,0,1-1.8,1.8H97.086a1.7,1.7,0,0,1-1.3-.541,1.79,1.79,0,0,1-.5-1.261V-20.918a1.756,1.756,0,0,1,.5-1.3,1.756,1.756,0,0,1,1.3-.5h8.793a1.756,1.756,0,0,1,1.3.5,1.756,1.756,0,0,1,.5,1.3V-5.5a14.262,14.262,0,0,1,4.4-3.063A14.591,14.591,0,0,1,118.2-9.747a16.066,16.066,0,0,1,6.378,1.189A13.117,13.117,0,0,1,129.3-5.171,15.617,15.617,0,0,1,132.328.162a24.041,24.041,0,0,1,1.225,6.955q.072,1.441.072,2.558t-.072,2.558a24.684,24.684,0,0,1-1.225,7.171,15.3,15.3,0,0,1-3.063,5.333,12.773,12.773,0,0,1-4.721,3.315A16.7,16.7,0,0,1,118.2,29.17Zm-3.892-9.657a6.333,6.333,0,0,0,3.82-1.009,5.645,5.645,0,0,0,1.982-2.739,14.367,14.367,0,0,0,.757-3.82,34.666,34.666,0,0,0,0-4.468,14.367,14.367,0,0,0-.757-3.82A5.645,5.645,0,0,0,118.13.919,6.333,6.333,0,0,0,114.31-.09a6.437,6.437,0,0,0-3.676.973,6.1,6.1,0,0,0-2.162,2.522,8.687,8.687,0,0,0-.793,3.351q-.072,1.369-.072,2.667t.072,2.739a12.335,12.335,0,0,0,.793,3.6,5.951,5.951,0,0,0,2.09,2.7A6.235,6.235,0,0,0,114.31,19.513Z" transform="translate(259.747 52.72)" fill="#fff"/>
    <path id="Path_3223" data-name="Path 3223" d="M16.631,29.17A16.564,16.564,0,0,1,10.4,28.053,12.709,12.709,0,0,1,5.64,24.738,15.3,15.3,0,0,1,2.577,19.4a24.683,24.683,0,0,1-1.225-7.171Q1.28,10.793,1.28,9.675t.072-2.558A24.041,24.041,0,0,1,2.577.162,15.617,15.617,0,0,1,5.6-5.171a13.046,13.046,0,0,1,4.757-3.387,15.941,15.941,0,0,1,6.27-1.189,14.782,14.782,0,0,1,6.2,1.189,14.262,14.262,0,0,1,4.4,3.063V-20.918a1.756,1.756,0,0,1,.5-1.3,1.756,1.756,0,0,1,1.3-.5H37.82a1.79,1.79,0,0,1,1.261.5,1.7,1.7,0,0,1,.541,1.3V26.648a1.847,1.847,0,0,1-1.8,1.8H29.676a1.7,1.7,0,0,1-1.3-.541,1.79,1.79,0,0,1-.5-1.261V24.342A13.58,13.58,0,0,1,23.406,27.8,15.059,15.059,0,0,1,16.631,29.17Zm3.964-9.657a6.2,6.2,0,0,0,3.784-1.045,6.3,6.3,0,0,0,2.09-2.7,10.368,10.368,0,0,0,.757-3.6q.072-1.441.072-2.739t-.072-2.667a8.687,8.687,0,0,0-.793-3.351A6.1,6.1,0,0,0,24.27.883,6.437,6.437,0,0,0,20.595-.09,6.364,6.364,0,0,0,16.811.919a5.561,5.561,0,0,0-2.018,2.739,14.367,14.367,0,0,0-.757,3.82,23.14,23.14,0,0,0,0,4.468,14.367,14.367,0,0,0,.757,3.82A5.561,5.561,0,0,0,16.811,18.5,6.364,6.364,0,0,0,20.595,19.513ZM60.81,29.17a23.908,23.908,0,0,1-10.2-1.946,14.279,14.279,0,0,1-6.342-5.585,18.6,18.6,0,0,1-2.486-8.684q-.072-1.441-.072-3.279t.072-3.207a17.752,17.752,0,0,1,2.595-8.72A15.047,15.047,0,0,1,50.828-7.8,23.335,23.335,0,0,1,60.81-9.747,23.525,23.525,0,0,1,70.864-7.8a15.047,15.047,0,0,1,6.45,5.549,17.752,17.752,0,0,1,2.595,8.72q.072,1.369.072,3.207t-.072,3.279a18.6,18.6,0,0,1-2.486,8.684,14.279,14.279,0,0,1-6.342,5.585A24.1,24.1,0,0,1,60.81,29.17Zm0-8.793a5.547,5.547,0,0,0,4.721-1.946,10.6,10.6,0,0,0,1.694-5.838q.072-1.081.072-2.883t-.072-2.883a10.661,10.661,0,0,0-1.694-5.8A5.5,5.5,0,0,0,60.81-.955a5.537,5.537,0,0,0-4.649,1.982,9.911,9.911,0,0,0-1.694,5.8Q54.4,7.91,54.4,9.711t.072,2.883a9.864,9.864,0,0,0,1.694,5.838A5.583,5.583,0,0,0,60.81,20.378ZM99.3,29.17a21.81,21.81,0,0,1-9.441-1.946,15.558,15.558,0,0,1-6.522-5.657,17.332,17.332,0,0,1-2.631-8.9q-.072-1.153-.072-2.919T80.7,6.829A17.672,17.672,0,0,1,83.3-2.144,15.274,15.274,0,0,1,89.818-7.8,22.05,22.05,0,0,1,99.3-9.747a23.294,23.294,0,0,1,8.54,1.405,17.646,17.646,0,0,1,5.766,3.5,16.014,16.014,0,0,1,3.315,4.288A9.7,9.7,0,0,1,118.106,3.3a1.462,1.462,0,0,1-.5,1.261,1.849,1.849,0,0,1-1.3.541h-9.153a1.863,1.863,0,0,1-1.225-.36,3.319,3.319,0,0,1-.793-1.081,6.7,6.7,0,0,0-2.2-3.171A5.821,5.821,0,0,0,99.511-.45a5.425,5.425,0,0,0-4.432,1.874Q93.53,3.3,93.386,7.189q-.072,2.883,0,5.117.216,3.964,1.73,5.766a5.418,5.418,0,0,0,4.4,1.8,5.759,5.759,0,0,0,3.531-.973,6.655,6.655,0,0,0,2.09-3.135,3.32,3.32,0,0,1,.793-1.081,1.863,1.863,0,0,1,1.225-.36H116.3a1.919,1.919,0,0,1,1.3.5,1.455,1.455,0,0,1,.5,1.3,9.659,9.659,0,0,1-.721,2.811,14.6,14.6,0,0,1-2.018,3.459,15.364,15.364,0,0,1-3.567,3.315,19.693,19.693,0,0,1-5.3,2.486A24.11,24.11,0,0,1,99.3,29.17Z" transform="translate(259.266 105.782)" fill="#fff"/>
  </g>
</svg>
