<svg xmlns="http://www.w3.org/2000/svg" width="170.447" height="75" viewBox="0 0 170.447 75">
  <g id="logo-v1" transform="translate(-176.001 -145.001)">
    <g id="icon" transform="translate(176.001 145.001)">
      <path id="Path_3218" data-name="Path 3218" d="M100.875,180.088V172.3H99.318a7.711,7.711,0,0,0-7.786,7.786v3.27a10.813,10.813,0,0,1,7.786-3.271Z" transform="translate(-91.532 -150.47)" fill="#0074c8"/>
      <path id="Path_3219" data-name="Path 3219" d="M194.759,25.848,183.08,37.682h11.679Z" transform="translate(-169.79 -25.225)" fill="#959595"/>
      <path id="Path_3220" data-name="Path 3220" d="M194.281,47.074l2.347-4.2a17.206,17.206,0,0,1,15.18-8.876h15.964V26.208a4.6,4.6,0,0,0-4.7-4.672H193.341V35.551a1.565,1.565,0,0,1-1.565,1.557H177.691V51.122h9.86a7.542,7.542,0,0,0,6.73-4.049Z" transform="translate(-165.233 -21.536)" fill="#f6fcff"/>
      <path id="Path_3221" data-name="Path 3221" d="M158.719,129.229H138.094a14.08,14.08,0,0,0-12.343,7.331l-2.343,4.211a10.875,10.875,0,0,1-9.687,5.771H99.346a7.73,7.73,0,0,0-7.812,7.8v26.515a7.829,7.829,0,0,0,7.812,7.8h59.372a7.73,7.73,0,0,0,7.812-7.8V137.028a7.729,7.729,0,0,0-7.812-7.8Z" transform="translate(-91.534 -113.657)" fill="#0074c8"/>
    </g>
    <path id="Path_3222" data-name="Path 3222" d="M8.415,7.485a1.225,1.225,0,0,1-.936-.319,2.368,2.368,0,0,1-.468-.744L.885-13.276A1.138,1.138,0,0,1,.8-13.7a.87.87,0,0,1,.3-.659.972.972,0,0,1,.681-.277H6.16a1.228,1.228,0,0,1,.872.3,1.351,1.351,0,0,1,.4.6L11.01-1.577,14.839-13.7a1.486,1.486,0,0,1,.4-.617,1.238,1.238,0,0,1,.915-.319h2.808a1.314,1.314,0,0,1,.936.319,1.105,1.105,0,0,1,.383.617L24.113-1.577l3.574-12.167a1.351,1.351,0,0,1,.4-.6,1.228,1.228,0,0,1,.872-.3h4.382a.972.972,0,0,1,.681.277.87.87,0,0,1,.3.659,1.138,1.138,0,0,1-.085.425l-6.126,19.7a1.749,1.749,0,0,1-.447.744,1.3,1.3,0,0,1-.957.319H22.879a1.314,1.314,0,0,1-.936-.319,1.663,1.663,0,0,1-.468-.744L17.562-5.235,13.648,6.421a1.663,1.663,0,0,1-.468.744,1.314,1.314,0,0,1-.936.319Zm36.076.425a11.4,11.4,0,0,1-8-2.723Q33.515,2.465,33.387-2.9V-4.384a12.341,12.341,0,0,1,1.51-5.764,9.155,9.155,0,0,1,3.829-3.659,12.374,12.374,0,0,1,5.722-1.255,11.735,11.735,0,0,1,6.19,1.489,9.465,9.465,0,0,1,3.68,4.042A13.231,13.231,0,0,1,55.552-3.7v1.021a1.037,1.037,0,0,1-.3.766,1.037,1.037,0,0,1-.766.3H40.875v.3A6.713,6.713,0,0,0,41.322.933,3.664,3.664,0,0,0,42.513,2.55a3.115,3.115,0,0,0,1.936.6,3.274,3.274,0,0,0,1.425-.277,3.752,3.752,0,0,0,.957-.638,7.482,7.482,0,0,0,.6-.617,2.1,2.1,0,0,1,.617-.574,1.92,1.92,0,0,1,.744-.106h5.275a1,1,0,0,1,.7.255A.769.769,0,0,1,55,1.869a3.74,3.74,0,0,1-.723,1.744A8.784,8.784,0,0,1,52.3,5.634a10.756,10.756,0,0,1-3.254,1.638A14.7,14.7,0,0,1,44.491,7.91ZM40.875-5.831h7.19v-.085a6.409,6.409,0,0,0-.4-2.4,3.294,3.294,0,0,0-1.234-1.553,3.483,3.483,0,0,0-1.978-.553,3.307,3.307,0,0,0-1.914.553A3.474,3.474,0,0,0,41.3-8.319a6.123,6.123,0,0,0-.425,2.4ZM70.1,7.91A8.782,8.782,0,0,1,66.145,7.1,8.016,8.016,0,0,1,63.507,5.06V6.421a1.09,1.09,0,0,1-1.064,1.064H57.637a1,1,0,0,1-.766-.319,1.057,1.057,0,0,1-.3-.744V-21.656a1.037,1.037,0,0,1,.3-.766,1.037,1.037,0,0,1,.766-.3h5.19a1.037,1.037,0,0,1,.766.3,1.037,1.037,0,0,1,.3.766v9.1a8.418,8.418,0,0,1,2.6-1.808,8.613,8.613,0,0,1,3.616-.7,9.484,9.484,0,0,1,3.765.7,7.742,7.742,0,0,1,2.787,2A9.219,9.219,0,0,1,78.44-9.213a14.191,14.191,0,0,1,.723,4.105q.043.851.043,1.51t-.043,1.51a14.57,14.57,0,0,1-.723,4.233,9.031,9.031,0,0,1-1.808,3.148,7.54,7.54,0,0,1-2.787,1.957A9.858,9.858,0,0,1,70.1,7.91Zm-2.3-5.7a3.738,3.738,0,0,0,2.255-.6A3.332,3.332,0,0,0,71.229,0a8.48,8.48,0,0,0,.447-2.255,20.462,20.462,0,0,0,0-2.638,8.48,8.48,0,0,0-.447-2.255,3.332,3.332,0,0,0-1.17-1.617,3.738,3.738,0,0,0-2.255-.6,3.8,3.8,0,0,0-2.17.574A3.6,3.6,0,0,0,64.358-7.3,5.128,5.128,0,0,0,63.89-5.32q-.043.808-.043,1.574T63.89-2.13A7.281,7.281,0,0,0,64.358,0a3.512,3.512,0,0,0,1.234,1.6A3.68,3.68,0,0,0,67.8,2.21Z" transform="translate(267.243 167.724)" fill="#f6fcff"/>
    <path id="Path_3223" data-name="Path 3223" d="M11.582,11.582A11.266,11.266,0,0,1,7.4,10.844,8.531,8.531,0,0,1,4.206,8.652,10.078,10.078,0,0,1,2.151,5.127,16.1,16.1,0,0,1,1.328.386Q1.28-.566,1.28-1.3T1.328-3a15.679,15.679,0,0,1,.822-4.6,10.286,10.286,0,0,1,2.031-3.526,8.754,8.754,0,0,1,3.192-2.239,10.84,10.84,0,0,1,4.208-.786,10.051,10.051,0,0,1,4.159.786,9.574,9.574,0,0,1,2.95,2.025v-10.2a1.152,1.152,0,0,1,.339-.858,1.188,1.188,0,0,1,.871-.333h5.9a1.211,1.211,0,0,1,.846.333,1.112,1.112,0,0,1,.363.858V9.915a1.134,1.134,0,0,1-.363.834,1.169,1.169,0,0,1-.846.357H20.336a1.146,1.146,0,0,1-.871-.357,1.174,1.174,0,0,1-.339-.834V8.39a9.1,9.1,0,0,1-3,2.287A10.237,10.237,0,0,1,11.582,11.582ZM14.242,5.2a4.208,4.208,0,0,0,2.539-.691,4.17,4.17,0,0,0,1.4-1.787A6.766,6.766,0,0,0,18.692.339q.048-.953.048-1.81t-.048-1.763A5.672,5.672,0,0,0,18.16-5.45a4.048,4.048,0,0,0-1.451-1.667,4.369,4.369,0,0,0-2.467-.643,4.319,4.319,0,0,0-2.539.667,3.681,3.681,0,0,0-1.354,1.81,9.373,9.373,0,0,0-.508,2.525A15.069,15.069,0,0,0,9.841.2a9.373,9.373,0,0,0,.508,2.525A3.681,3.681,0,0,0,11.7,4.531,4.319,4.319,0,0,0,14.242,5.2ZM41.23,11.582A16.256,16.256,0,0,1,34.386,10.3,9.538,9.538,0,0,1,30.13,6.6,12.157,12.157,0,0,1,28.461.863Q28.413-.09,28.413-1.3t.048-2.12A11.609,11.609,0,0,1,30.2-9.19a10.056,10.056,0,0,1,4.329-3.668,15.865,15.865,0,0,1,6.7-1.286,16,16,0,0,1,6.747,1.286A10.056,10.056,0,0,1,52.306-9.19a11.608,11.608,0,0,1,1.741,5.765q.048.905.048,2.12T54.047.863A12.157,12.157,0,0,1,52.378,6.6,9.538,9.538,0,0,1,48.122,10.3,16.388,16.388,0,0,1,41.23,11.582Zm0-5.812A3.748,3.748,0,0,0,44.4,4.484,6.931,6.931,0,0,0,45.534.625q.048-.715.048-1.906t-.048-1.906A6.972,6.972,0,0,0,44.4-7.022a3.717,3.717,0,0,0-3.168-1.31,3.741,3.741,0,0,0-3.12,1.31,6.483,6.483,0,0,0-1.137,3.835q-.048.715-.048,1.906T36.974.625A6.452,6.452,0,0,0,38.11,4.484,3.773,3.773,0,0,0,41.23,5.77Zm25.827,5.812A14.826,14.826,0,0,1,60.721,10.3a10.4,10.4,0,0,1-4.377-3.74A11.334,11.334,0,0,1,54.579.672q-.048-.762-.048-1.93t.048-1.93A11.555,11.555,0,0,1,56.32-9.118a10.206,10.206,0,0,1,4.377-3.74,14.99,14.99,0,0,1,6.36-1.286,15.846,15.846,0,0,1,5.731.929A11.875,11.875,0,0,1,76.658-10.9,10.606,10.606,0,0,1,78.883-8.07a6.345,6.345,0,0,1,.8,2.549.959.959,0,0,1-.339.834,1.251,1.251,0,0,1-.871.357H72.329a1.263,1.263,0,0,1-.822-.238,2.2,2.2,0,0,1-.532-.715,4.427,4.427,0,0,0-1.475-2.1A3.95,3.95,0,0,0,67.2-8,3.667,3.667,0,0,0,64.228-6.76a6.222,6.222,0,0,0-1.137,3.811q-.048,1.906,0,3.383a6.392,6.392,0,0,0,1.161,3.811A3.663,3.663,0,0,0,67.2,5.436a3.908,3.908,0,0,0,2.37-.643,4.4,4.4,0,0,0,1.4-2.072,2.2,2.2,0,0,1,.532-.715,1.263,1.263,0,0,1,.822-.238h6.142a1.3,1.3,0,0,1,.871.333.954.954,0,0,1,.339.858A6.307,6.307,0,0,1,79.2,4.817,9.617,9.617,0,0,1,77.843,7.1,10.251,10.251,0,0,1,75.449,9.3a13.306,13.306,0,0,1-3.555,1.644A16.409,16.409,0,0,1,67.057,11.582Z" transform="translate(266.762 208.418)" fill="#f6fcff"/>
  </g>
</svg>
